<?xml version="1.0" standalone="no"?>
<!DOCTYPE svg PUBLIC "-//W3C//DTD SVG 20010904//EN"
 "http://www.w3.org/TR/2001/REC-SVG-20010904/DTD/svg10.dtd">
<svg version="1.0" xmlns="http://www.w3.org/2000/svg"
 width="512.000000pt" height="512.000000pt" viewBox="0 0 512.000000 512.000000"
 preserveAspectRatio="xMidYMid meet">

<g transform="translate(0.000000,512.000000) scale(0.100000,-0.100000)"
fill="#000000" stroke="none">
<path d="M770 5105 c-361 -66 -638 -320 -741 -680 l-23 -80 -3 -1027 c-3 -660
0 -1028 6 -1028 5 0 22 4 36 10 14 5 41 12 58 14 18 3 115 16 217 30 102 14
204 30 227 36 23 5 84 15 135 21 51 5 107 12 123 14 17 2 73 8 125 14 52 6
129 17 170 25 41 8 107 17 145 21 39 4 84 9 100 11 17 2 59 7 95 9 36 3 74 7
85 10 11 2 24 4 28 4 5 0 17 10 28 22 10 12 21 20 24 17 3 -3 -2 -56 -10 -118
-9 -63 -15 -164 -14 -224 1 -61 -3 -174 -9 -251 -10 -128 -6 -234 14 -340 5
-28 4 -29 -10 -11 -27 34 -28 10 -3 -72 14 -44 23 -91 20 -104 -5 -28 27 -48
79 -48 17 0 48 -5 68 -11 29 -9 36 -15 27 -24 -6 -6 -22 -9 -35 -7 -18 3 -20
7 -10 13 9 6 6 9 -12 9 -14 0 -32 -5 -40 -11 -13 -9 -12 -10 2 -5 10 3 20 1
23 -4 4 -6 1 -10 -6 -10 -8 0 -9 -3 0 -13 6 -8 8 -16 5 -20 -3 -3 4 -3 17 0
22 6 22 7 3 15 -14 6 -11 7 14 5 17 -2 32 0 32 5 0 5 77 8 174 6 96 -2 173 -5
170 -7 -2 -2 25 -17 59 -34 50 -25 58 -31 40 -35 -13 -2 -23 -8 -23 -13 0 -5
12 -6 28 -2 42 11 68 9 188 -10 140 -23 161 -25 202 -26 19 -1 31 -5 27 -11
-4 -6 1 -7 11 -3 13 5 16 3 11 -10 -6 -17 25 -33 43 -22 6 4 10 -5 10 -19 0
-27 -15 -35 -23 -13 -3 9 -8 7 -18 -5 -15 -18 -82 -37 -134 -38 -24 0 -36 -9
-62 -48 -18 -27 -33 -62 -34 -78 0 -16 -3 -23 -6 -16 -5 13 -53 17 -53 4 0 -4
-9 -8 -19 -9 -14 -1 -18 3 -14 13 3 8 -1 14 -11 14 -9 0 -16 -4 -16 -10 0 -5
-6 -7 -14 -4 -8 3 -17 1 -21 -5 -3 -6 -15 -11 -26 -11 -11 0 -18 -4 -14 -9 3
-6 -6 -8 -20 -5 -14 2 -25 0 -25 -6 0 -5 6 -10 13 -10 8 0 7 -4 -3 -10 -8 -5
-10 -10 -5 -10 6 -1 0 -5 -12 -10 -15 -6 -21 -15 -18 -30 2 -11 0 -20 -6 -20
-5 0 -9 9 -9 20 0 21 -15 27 -25 10 -3 -5 -1 -10 5 -10 22 0 -2 -21 -52 -45
-42 -20 -52 -22 -64 -11 -17 18 -1 32 40 34 36 2 38 4 42 37 2 21 -1 25 -14
21 -9 -3 -3 5 13 19 22 18 25 25 13 25 -9 0 -19 -4 -22 -9 -3 -5 -26 -12 -51
-15 -31 -5 -48 -14 -56 -28 -10 -19 -9 -20 7 -13 11 4 24 8 31 8 7 0 10 4 7 9
-8 13 30 8 50 -7 24 -18 12 -36 -24 -33 -33 2 -60 -17 -60 -43 0 -13 -7 -19
-22 -18 -13 0 -17 3 -10 6 6 2 12 14 12 26 -1 19 -2 20 -13 7 -17 -21 -71 -25
-63 -5 4 11 -2 15 -23 15 -24 0 -29 4 -27 24 0 13 6 21 11 18 6 -3 4 2 -4 12
-9 10 -17 13 -20 7 -10 -16 -78 -41 -111 -41 -27 0 -30 -3 -25 -20 4 -11 2
-20 -4 -20 -6 0 -11 9 -11 20 0 18 -3 19 -20 10 -11 -6 -18 -15 -15 -19 8 -13
-22 -21 -54 -15 -18 4 -38 0 -52 -9 -13 -9 -41 -19 -61 -22 -23 -4 -35 -11
-31 -18 3 -5 1 -7 -5 -3 -6 3 -13 2 -17 -4 -3 -5 -12 -10 -18 -10 -7 1 -3 8 9
18 11 10 29 30 39 45 10 15 25 27 34 25 9 -2 28 9 44 25 24 25 32 23 28 -8 -1
-5 5 -2 12 7 8 10 17 15 20 12 3 -3 12 -2 19 2 7 5 22 9 33 9 11 0 20 5 20 12
0 6 3 15 8 19 4 4 7 1 7 -6 0 -10 5 -9 18 3 10 10 24 17 31 17 6 0 23 7 36 16
14 9 25 12 25 6 0 -6 10 -8 22 -4 20 5 19 7 -12 17 -34 12 -34 12 22 11 32 -1
58 -4 58 -8 0 -12 -31 -38 -40 -33 -12 8 -68 -15 -74 -30 -3 -8 0 -17 6 -21 6
-4 8 -3 4 4 -7 11 32 26 98 37 l39 6 -26 -31 c-15 -17 -27 -36 -27 -41 0 -15
40 -10 46 6 4 8 10 13 14 10 4 -2 22 9 39 25 20 20 49 34 79 40 26 5 63 14 82
20 19 5 48 10 63 10 19 0 26 4 21 12 -4 7 -3 8 5 4 6 -4 19 0 28 10 11 11 18
13 21 5 5 -15 18 -14 36 5 11 10 16 11 16 3 0 -8 7 -6 19 5 11 10 25 15 30 11
6 -3 21 5 33 18 13 13 33 27 46 31 12 4 22 12 22 17 0 6 -10 8 -22 4 l-23 -6
23 20 c12 10 22 22 22 25 0 11 -28 6 -39 -8 -6 -7 -21 -14 -34 -14 -18 -1 -85
-16 -152 -35 -41 -12 -61 -22 -71 -36 -9 -11 -16 -12 -25 -5 -23 17 -105 11
-128 -10 -12 -11 -21 -25 -21 -32 0 -8 -6 -11 -15 -8 -18 7 -20 35 -2 53 10
11 8 12 -10 7 -18 -6 -20 -3 -16 12 2 11 14 25 26 31 21 11 21 11 -4 6 -47 -9
-41 9 8 21 30 8 54 9 67 3 20 -9 20 -9 -2 -5 -12 2 -20 0 -17 -4 3 -5 -3 -10
-12 -12 -15 -3 -14 -5 5 -10 12 -3 20 -2 16 3 -3 5 4 9 15 9 11 0 23 -4 26
-10 3 -6 -1 -7 -10 -4 -11 5 -14 2 -9 -10 3 -9 15 -16 26 -16 14 0 18 5 14 15
-3 8 -2 14 2 14 21 -3 65 4 50 8 -10 2 -18 8 -18 13 0 13 52 22 63 11 8 -8 6
-11 -6 -11 -9 0 -17 -4 -17 -10 0 -16 15 -12 34 9 16 18 16 19 -11 26 -26 7
-26 8 -8 15 18 8 18 9 -5 9 -14 1 -33 -8 -43 -19 -9 -11 -22 -20 -28 -20 -8 0
-9 4 0 13 6 8 8 17 4 20 -3 4 2 7 13 7 15 0 16 2 5 9 -10 6 -25 5 -42 -5 -15
-7 -35 -11 -44 -8 -9 4 -25 -2 -35 -11 -14 -13 -39 -19 -78 -20 -35 -1 -75
-11 -104 -25 -27 -12 -54 -20 -62 -17 -8 3 -26 -3 -40 -14 -14 -11 -26 -19
-26 -16 0 8 39 48 47 49 4 0 14 3 22 6 7 3 16 1 20 -5 3 -5 14 -1 24 10 18 18
17 18 -20 10 -21 -4 -59 -8 -84 -7 -38 0 -46 -3 -41 -15 4 -13 2 -14 -9 -4 -7
7 -21 13 -32 13 -32 0 -9 18 33 25 22 4 40 11 40 17 0 5 6 8 13 5 6 -2 11 -9
10 -14 -2 -12 67 -7 79 5 6 6 3 12 -7 16 -9 3 -13 2 -10 -4 7 -11 -9 -13 -43
-4 -18 5 -20 9 -11 20 8 10 8 14 0 14 -6 0 -11 -4 -11 -9 0 -14 -89 -44 -108
-36 -15 6 -14 8 6 16 12 4 22 13 22 19 0 6 5 8 12 4 7 -4 8 -3 4 4 -10 16 -22
15 -40 -3 -8 -9 -31 -16 -51 -17 -19 -1 -35 -5 -35 -10 0 -4 -5 -8 -11 -8 -21
0 13 30 35 31 20 0 20 1 1 8 -11 4 -35 4 -55 0 -48 -12 -50 -11 -44 6 4 10 13
13 25 10 13 -5 19 -2 17 7 -2 8 8 14 25 16 15 2 27 7 27 11 0 8 -41 4 -70 -6
-31 -11 -60 -11 -60 0 0 7 -8 2 -18 -9 -9 -12 -35 -27 -57 -34 -69 -22 -122
-49 -100 -50 13 -1 9 -5 -12 -11 -18 -5 -33 -14 -33 -20 0 -6 5 -7 12 -3 7 4
8 3 4 -4 -4 -7 -15 -12 -25 -12 -11 0 -25 -15 -37 -40 -12 -25 -24 -38 -33
-35 -7 3 -20 0 -28 -7 -10 -8 -17 -8 -21 -1 -8 12 -40 9 -55 -6 -5 -5 -16 -7
-23 -4 -11 4 -11 10 2 34 8 16 19 27 24 24 5 -3 19 -1 31 5 24 13 41 4 19 -10
-10 -6 -11 -10 -3 -10 7 0 20 12 29 26 14 21 15 27 4 34 -9 5 -18 3 -25 -7 -6
-8 -26 -15 -45 -16 -40 -2 -71 -24 -63 -43 4 -10 -6 -14 -36 -14 -23 0 -42 1
-44 3 -1 1 -15 -8 -31 -21 -16 -12 -34 -22 -41 -22 -7 0 -18 -6 -24 -14 -10
-12 -8 -13 9 -9 11 3 23 9 26 14 8 14 34 10 34 -5 0 -8 -11 -17 -25 -20 -14
-4 -25 -13 -25 -21 0 -8 -7 -15 -15 -15 -7 0 -18 -8 -24 -17 -9 -17 -10 -17
-16 -1 -10 25 -26 22 -54 -8 -14 -14 -42 -33 -63 -42 -21 -9 -38 -20 -38 -24
0 -12 24 -5 36 11 7 9 21 12 40 8 19 -3 37 1 56 15 20 14 28 16 28 6 0 -10 3
-9 10 2 8 12 12 12 18 2 11 -16 72 -34 72 -21 0 6 12 1 26 -10 15 -12 34 -21
43 -20 9 0 3 7 -14 14 -16 8 -25 14 -18 15 7 0 10 7 6 18 -3 9 -3 14 1 10 5
-4 19 -3 32 2 16 6 24 6 24 -1 0 -6 -9 -13 -20 -16 -34 -9 -22 -25 15 -19 24
4 34 2 32 -7 -2 -6 1 -3 6 9 5 11 37 33 71 48 33 15 69 32 78 37 23 12 41 12
33 -1 -3 -6 3 -10 13 -10 26 0 89 27 94 40 1 5 19 12 38 15 19 3 28 2 20 -2
-16 -7 -26 -17 -50 -47 -9 -12 -10 -17 -2 -12 6 4 12 3 12 -2 0 -4 -27 -8 -60
-7 -60 1 -79 -8 -38 -18 12 -3 28 -2 37 2 19 10 41 4 41 -11 0 -7 -5 -6 -14 1
-10 8 -16 9 -21 1 -3 -5 -16 -10 -28 -10 -13 0 -33 -7 -45 -16 -13 -9 -30 -13
-40 -9 -9 3 -12 9 -7 13 12 8 37 52 31 52 -3 0 -16 -11 -30 -25 -14 -14 -34
-25 -45 -25 -20 0 -34 -14 -37 -37 -1 -6 4 -9 12 -6 7 3 12 10 11 16 -2 13 28
21 50 13 11 -5 13 -10 4 -20 -6 -7 -8 -16 -4 -19 3 -4 -1 -7 -10 -7 -9 0 -38
-15 -64 -32 -27 -18 -54 -34 -61 -36 -20 -4 -3 18 22 28 l21 9 -22 0 c-12 1
-25 -3 -28 -9 -3 -5 -17 -10 -30 -10 -12 0 -25 -7 -29 -15 -6 -15 -36 -21 -36
-7 0 16 25 32 51 32 15 0 37 9 50 20 28 23 26 23 -21 10 -19 -6 -48 -13 -64
-16 -16 -2 -36 -9 -45 -14 -14 -8 -14 -9 2 -10 20 0 21 -4 7 -31 -12 -21 -50
-26 -50 -7 0 7 -5 6 -12 -4 -17 -20 -70 -34 -63 -16 3 7 18 22 34 32 15 11 34
28 41 39 10 17 10 19 -5 13 -9 -3 -30 -6 -46 -6 -19 0 -28 -4 -24 -11 4 -6 14
-8 22 -5 9 4 7 -4 -8 -25 -16 -23 -24 -28 -30 -17 -8 12 -13 5 -10 -14 0 -4
-6 -5 -14 -1 -13 4 -13 8 -3 21 12 14 11 14 -9 1 -13 -8 -23 -17 -23 -22 0 -4
5 -5 11 -1 7 4 10 1 7 -6 -7 -22 -50 -47 -88 -54 l-35 -5 23 17 c71 52 76 58
58 65 -12 5 -15 3 -10 -6 5 -9 4 -9 -6 0 -9 8 -19 9 -32 2 -13 -7 -18 -6 -18
3 0 8 20 22 44 33 24 11 43 22 41 25 -2 3 11 4 29 2 21 -2 37 2 45 12 8 9 20
16 28 16 8 0 26 9 40 19 l24 20 -38 -6 c-21 -3 -60 -12 -88 -20 -27 -8 -63
-16 -80 -18 -16 -2 -50 -9 -75 -15 -55 -14 -220 -21 -220 -9 0 5 -7 5 -17 0
-22 -11 -101 -33 -106 -29 -2 2 -11 -3 -20 -11 -10 -7 -17 -9 -17 -4 0 14 -54
7 -90 -12 -17 -9 -30 -17 -30 -18 0 -23 81 -197 92 -197 4 0 8 -7 8 -16 0 -9
10 -29 23 -45 12 -15 38 -49 57 -74 49 -65 136 -138 231 -196 90 -53 154 -80
274 -112 l80 -22 1755 0 c1662 0 1759 1 1830 18 150 36 272 97 391 192 170
137 292 351 329 576 5 37 10 243 10 483 l0 418 -27 -7 c-27 -6 -27 -6 -8 8 11
9 23 13 27 11 5 -3 8 13 8 35 0 37 -2 41 -26 41 -14 0 -23 -4 -19 -10 3 -5 13
-10 21 -10 8 0 14 -4 14 -10 0 -9 -68 -16 -95 -10 -9 2 -23 4 -85 14 -8 2 -29
6 -46 10 -18 4 -43 2 -60 -5 -16 -7 -42 -11 -59 -11 -30 2 -30 2 -5 -9 14 -6
41 -12 61 -14 46 -5 120 -37 116 -49 -4 -12 -76 -15 -99 -3 -10 4 -18 4 -18 0
0 -5 -17 -7 -39 -5 -21 2 -42 -1 -45 -7 -4 -6 0 -11 8 -11 27 0 18 -25 -9 -26
-14 -1 -25 2 -25 7 0 5 -5 9 -11 9 -5 0 -7 -5 -4 -10 3 -6 -3 -10 -14 -10 -10
0 -21 -5 -23 -12 -3 -7 -11 -9 -24 -3 -10 4 -23 7 -27 6 -5 -1 -6 7 -2 18 3
11 2 22 -3 25 -6 3 -9 -2 -8 -12 1 -12 -5 -16 -21 -14 -13 2 -23 -2 -23 -8 0
-6 -4 -8 -10 -5 -5 3 -16 2 -24 -2 -13 -7 -16 -12 -16 -29 0 -4 -7 -1 -16 6
-12 11 -15 11 -12 0 3 -15 -31 -27 -78 -29 -19 -1 -34 -7 -38 -17 -8 -22 -9
-22 17 -17 17 3 24 0 24 -11 0 -9 -4 -16 -9 -16 -4 0 -8 4 -8 9 0 10 -39 3
-57 -11 -7 -6 -14 -5 -18 2 -4 7 2 14 14 17 12 3 21 13 21 24 0 21 -16 26 -23
7 -4 -8 -6 -7 -6 3 -1 20 -51 21 -51 2 0 -7 -5 -13 -12 -13 -6 0 -9 -2 -6 -5
3 -3 18 -1 33 5 25 9 26 9 15 -5 -7 -8 -21 -15 -31 -15 -19 0 -35 -17 -24 -28
3 -3 10 0 15 8 8 12 10 12 10 -4 0 -16 6 -18 45 -14 27 4 46 1 48 -6 5 -15 57
-9 71 8 6 8 25 16 42 18 l32 4 -16 -32 c-13 -29 -20 -33 -65 -36 -32 -2 -51 1
-54 9 -3 8 -12 9 -30 2 -16 -6 -30 -6 -37 0 -13 11 -56 8 -76 -4 -9 -6 -12 -4
-8 7 4 8 2 21 -4 29 -8 11 -9 10 -4 -5 5 -14 2 -17 -10 -12 -17 7 -50 -19 -35
-29 5 -3 12 -1 16 5 9 15 28 12 22 -4 -3 -7 0 -19 6 -25 8 -8 8 -11 -1 -11 -7
0 -12 -7 -12 -15 0 -8 -5 -15 -10 -15 -7 0 -7 6 0 20 11 20 8 22 -27 20 -5 -1
-7 -11 -6 -23 1 -14 0 -16 -3 -5 -6 20 -34 13 -34 -9 0 -9 -6 -13 -15 -9 -20
7 -46 -4 -39 -16 11 -17 -19 -28 -58 -21 -57 9 -85 -3 -107 -45 -11 -20 -20
-30 -21 -22 0 10 -11 17 -32 18 -29 2 -31 1 -15 -11 17 -12 15 -13 -19 -15
-20 -2 -44 -7 -53 -13 -13 -8 -10 -9 12 -6 35 5 34 -4 -2 -26 -51 -30 -108
-12 -65 21 15 12 16 14 2 9 -12 -4 -15 -2 -11 9 4 11 13 14 31 9 19 -5 23 -3
19 8 -3 8 -1 19 4 24 5 5 -4 9 -25 9 -28 0 -32 -2 -19 -11 12 -9 -3 -11 -68
-10 -86 2 -109 -5 -109 -34 0 -10 -14 -20 -35 -27 -28 -9 -35 -8 -35 2 0 8 4
14 10 14 5 0 15 10 21 22 11 20 10 21 -2 11 -10 -8 -25 -10 -45 -4 l-29 8 28
7 c17 4 27 12 24 19 -3 9 10 12 47 12 28 -1 66 5 84 12 18 7 35 12 37 13 3 0
6 0 8 1 23 5 79 4 83 -3 8 -12 24 -10 24 4 0 6 -3 9 -6 5 -4 -3 -13 1 -21 9
-10 10 -19 11 -27 5 -7 -6 -17 -6 -26 -1 -12 8 -11 10 6 10 11 0 26 6 32 12
10 10 15 10 23 -2 8 -12 9 -12 7 4 -2 10 3 21 11 24 9 3 11 0 6 -8 -5 -8 -4
-11 2 -7 6 4 8 17 6 30 -5 23 -3 23 64 23 37 -1 70 -4 73 -8 3 -4 19 4 34 17
l29 25 -24 0 c-14 0 -30 -5 -37 -10 -9 -7 -9 -7 -2 2 14 17 12 28 -5 28 -8 0
-15 -3 -15 -8 0 -4 -9 -13 -21 -20 -17 -11 -20 -11 -13 0 4 7 -2 5 -13 -5 -19
-17 -53 -15 -53 4 0 5 -12 9 -26 9 -14 0 -23 -4 -20 -9 3 -5 -5 -11 -18 -13
-17 -3 -23 -1 -19 8 6 17 -36 29 -51 14 -8 -10 -8 -11 2 -6 21 12 34 -4 16
-21 -12 -13 -18 -13 -24 -4 -5 9 -10 9 -14 3 -3 -6 0 -17 8 -24 11 -12 8 -14
-21 -15 -29 -1 -34 2 -31 20 2 12 8 25 13 29 6 4 0 8 -13 8 -16 0 -21 -4 -16
-12 6 -10 4 -10 -7 0 -13 12 -38 18 -26 5 4 -3 -11 -14 -33 -24 -22 -10 -43
-26 -47 -36 -7 -19 -22 -33 -36 -33 -5 0 -5 4 -2 10 3 5 1 10 -4 10 -6 0 -11
-4 -11 -10 0 -5 -10 -10 -22 -10 -21 0 -21 0 -2 16 18 14 16 15 -21 9 -22 -4
-49 -14 -59 -23 -11 -10 -16 -11 -11 -3 6 10 3 10 -16 -1 -16 -10 -50 -14
-101 -14 -42 1 -74 -2 -72 -6 3 -4 -10 -8 -28 -8 -25 0 -29 3 -18 10 12 8 10
10 -9 10 -15 0 -21 -4 -18 -14 4 -9 -2 -13 -19 -13 -13 0 -24 3 -24 8 0 5 -7
6 -15 3 -8 -4 -15 -3 -15 0 0 4 11 11 24 16 20 7 24 15 23 43 -2 27 -5 33 -17
28 -8 -4 -34 -9 -57 -10 -35 -1 -42 1 -37 14 3 8 16 15 28 16 11 0 15 3 8 6
-6 2 -10 9 -6 14 3 5 -3 9 -13 9 -17 1 -17 2 1 15 11 8 17 17 14 21 -4 3 -16
-4 -28 -16 -11 -11 -32 -25 -46 -30 -54 -21 -169 -30 -198 -17 -23 11 -117 17
-131 9 -16 -10 -79 -1 -87 11 -4 7 -8 8 -8 2 0 -5 -19 -11 -43 -12 -23 -1 -36
1 -30 4 19 7 16 19 -10 30 -16 8 -25 7 -35 -3 -20 -21 -45 -18 -33 4 6 12 5
28 -5 51 -8 19 -12 42 -9 53 4 12 1 18 -8 18 -13 0 -13 6 -4 35 8 26 6 54 -6
117 -9 46 -19 123 -23 173 -3 49 -10 101 -16 115 -9 24 -12 61 -23 325 -2 66
-9 134 -13 150 -7 25 -5 34 16 53 13 13 46 27 74 32 80 16 134 44 162 87 33
49 89 198 121 321 30 111 92 319 100 331 2 5 22 68 44 142 49 168 109 323 174
453 50 99 235 427 318 563 112 184 320 469 423 581 l30 32 -1385 -1 c-1117 -1
-1398 -3 -1459 -14z m1120 -1086 c0 -10 -30 -20 -41 -13 -18 11 -9 24 16 22
14 -1 25 -5 25 -9z m-105 -29 c-9 -16 -20 -30 -26 -30 -7 0 -9 -11 -7 -25 4
-18 1 -25 -11 -25 -13 0 -13 -2 -2 -9 10 -7 6 -11 -17 -16 -17 -3 -36 -13 -43
-22 -11 -13 -10 -17 5 -29 17 -12 17 -15 3 -28 -13 -13 -17 -14 -27 -1 -6 8
-14 31 -17 52 -4 29 0 44 17 66 23 29 56 38 46 12 -3 -9 0 -15 9 -15 11 0 13
8 9 28 -5 25 -1 32 28 50 45 29 51 27 33 -8z m219 -1 c20 -19 -1 -17 -29 2
-28 19 -28 20 -5 14 14 -4 29 -11 34 -16z m-180 -28 c-22 -21 -27 -21 -18 3 3
9 13 16 22 16 13 0 12 -3 -4 -19z m-74 -99 c0 -12 -28 -48 -33 -42 -8 8 11 50
23 50 5 0 10 -4 10 -8z m-55 -212 c5 -24 5 -24 -10 -6 -9 12 -15 38 -14 65 l1
46 9 -40 c5 -22 11 -51 14 -65z m-476 -28 c11 -4 12 5 7 42 -5 30 -4 46 3 46
6 0 11 -7 11 -15 0 -8 9 -24 20 -35 24 -24 28 -120 6 -142 -7 -8 -21 -28 -30
-46 -9 -18 -21 -32 -26 -32 -11 0 -40 65 -40 90 0 10 -12 25 -26 35 -24 15
-27 27 -7 27 22 0 33 25 34 77 l1 56 16 -49 c9 -27 23 -52 31 -54z m1250 -29
c-5 -21 -9 -42 -9 -46 0 -15 31 9 51 39 28 44 23 12 -12 -69 -31 -71 -54 -107
-70 -107 -4 0 -21 11 -37 25 -24 20 -31 22 -35 11 -3 -8 -16 -20 -29 -27 l-23
-12 21 24 c11 13 28 59 38 102 21 90 39 102 34 22 -3 -54 -3 -55 15 -32 9 12
26 41 37 65 23 52 31 54 19 5z m-699 -78 c3 -28 -10 -65 -23 -65 -5 0 -15 8
-22 17 -11 15 -9 19 9 28 15 8 20 19 18 41 -2 21 0 25 7 14 5 -8 10 -24 11
-35z m745 -41 c-26 -38 -52 -71 -58 -73 -12 -5 -5 8 51 87 24 35 46 61 49 59
2 -3 -17 -36 -42 -73z m-880 -58 c-38 -47 -90 -72 -125 -61 -12 4 -28 1 -36
-6 -24 -20 -28 -2 -7 33 16 28 30 36 108 59 50 14 92 24 94 23 2 -2 -13 -23
-34 -48z m0 -627 c6 -32 5 -37 -15 -42 -16 -4 -21 -11 -16 -23 4 -10 1 -21 -6
-25 -9 -6 -9 -14 1 -36 32 -67 31 -80 0 -94 -53 -22 -56 -5 -25 143 16 73 31
151 34 173 l6 40 7 -50 c4 -27 10 -66 14 -86z m255 -423 c11 -35 25 -92 31
-127 5 -35 21 -100 34 -144 42 -138 56 -216 62 -330 3 -65 11 -122 20 -138 14
-27 13 -29 -6 -22 -25 7 -29 -16 -7 -34 7 -6 16 -28 20 -49 3 -20 9 -47 12
-59 l6 -21 -79 24 c-43 13 -86 24 -96 24 -11 0 -15 4 -11 12 5 7 2 9 -8 6 -16
-7 -115 14 -142 29 -16 9 -15 11 2 34 27 35 34 60 21 75 -6 8 -8 23 -3 36 4
13 9 61 10 108 3 133 19 293 32 317 7 13 10 43 8 69 -3 27 1 61 8 78 7 18 16
58 20 91 4 33 10 70 13 83 8 35 28 11 53 -62z m3097 -692 c-3 -3 -12 -4 -19
-1 -8 3 -5 6 6 6 11 1 17 -2 13 -5z m-406 -71 c13 -16 12 -17 -3 -4 -17 13
-22 21 -14 21 2 0 10 -8 17 -17z m167 -38 c-3 -13 -2 -26 2 -27 4 -2 4 -13 -1
-26 -7 -19 -11 -21 -23 -10 -12 11 -12 13 0 16 8 2 14 8 14 13 0 6 -7 6 -17 1
-31 -17 -103 -25 -103 -12 0 6 4 8 10 5 5 -3 22 2 37 12 15 10 34 17 44 15 10
-2 19 5 22 18 7 29 20 25 15 -5z m-208 0 c-7 -9 -15 -13 -19 -10 -3 3 1 10 9
15 21 14 24 12 10 -5z m-67 -38 c3 -8 -3 -14 -14 -14 -11 -1 -17 2 -14 7 3 5
-5 11 -17 13 -17 3 -15 5 8 6 18 0 34 -5 37 -12z m32 -87 c-3 -5 -11 -10 -16
-10 -6 0 -7 5 -4 10 3 6 11 10 16 10 6 0 7 -4 4 -10z m-768 -15 c0 -15 -34
-31 -44 -21 -8 8 17 36 32 36 6 0 12 -7 12 -15z m598 5 c3 -5 1 -10 -4 -10 -6
0 -11 5 -11 10 0 6 2 10 4 10 3 0 8 -4 11 -10z m284 3 c-3 -21 2 -33 16 -33
20 0 19 -15 -1 -35 -11 -11 -25 -14 -45 -10 -17 4 -29 2 -29 -3 0 -6 -9 -8
-21 -5 -15 4 -17 8 -8 14 8 4 10 11 6 16 -4 4 -18 1 -30 -6 -20 -13 -21 -13
-8 2 7 10 19 17 26 17 7 0 15 7 19 15 3 8 17 15 31 15 14 0 25 5 25 10 0 6 5
10 10 10 6 0 9 -3 9 -7z m-1066 -23 c4 -16 0 -20 -16 -19 -12 0 -17 3 -10 5 7
3 9 12 6 20 -3 8 -1 14 5 14 5 0 12 -9 15 -20z m1147 16 c0 -3 -4 -8 -10 -11
-5 -3 -10 -1 -10 4 0 6 5 11 10 11 6 0 10 -2 10 -4z m-1973 -22 c-3 -3 -12 -4
-19 -1 -8 3 -5 6 6 6 11 1 17 -2 13 -5z m67 -12 c3 -5 -1 -9 -9 -9 -8 0 -15 4
-15 9 0 4 4 8 9 8 6 0 12 -4 15 -8z m126 -2 c0 -5 -4 -10 -10 -10 -5 0 -10 5
-10 10 0 6 5 10 10 10 6 0 10 -4 10 -10z m-34 -29 c-3 -5 -15 -7 -26 -4 -28 7
-25 13 6 13 14 0 23 -4 20 -9z m1500 -23 c23 -24 -61 -35 -97 -13 -8 5 -9 1
-4 -15 6 -20 5 -21 -8 -9 -17 16 -12 37 11 41 27 6 91 3 98 -4z m118 2 c-6 -6
-21 -6 -39 -1 -30 9 -30 9 10 10 25 1 36 -2 29 -9z m-304 -9 c0 -5 -7 -14 -15
-21 -13 -11 -18 -11 -28 0 -10 10 -9 12 6 7 11 -4 17 -1 17 8 0 8 5 15 10 15
6 0 10 -4 10 -9z m45 -1 c-3 -5 -14 -10 -23 -10 -15 0 -15 2 -2 10 20 13 33
13 25 0z m180 1 c3 -6 -4 -15 -15 -21 -22 -12 -23 -10 -14 14 7 18 20 21 29 7z
m-355 -31 c-20 -13 5 -14 29 -1 13 7 20 4 30 -12 11 -18 11 -20 0 -9 -7 6 -20
12 -28 12 -11 0 -12 -3 -4 -8 6 -4 -9 -7 -33 -8 -24 0 -41 3 -38 8 3 4 10 5
16 2 7 -5 9 -1 5 9 -5 13 -1 17 16 17 18 0 19 -2 7 -10z m-820 -5 c0 -9 -44
-23 -54 -17 -5 3 -1 9 10 13 23 9 44 11 44 4z m960 -5 c0 -5 -5 -10 -11 -10
-5 0 -7 5 -4 10 3 6 8 10 11 10 2 0 4 -4 4 -10z m730 -110 c0 -5 -7 -7 -15 -4
-8 4 -15 8 -15 10 0 2 7 4 15 4 8 0 15 -4 15 -10z m-3506 -12 c-3 -4 -9 -8
-15 -8 -5 0 -9 4 -9 8 0 5 7 9 15 9 8 0 12 -4 9 -9z m-99 -36 c-3 -3 -15 -7
-28 -9 -21 -4 -21 -3 -2 11 18 13 44 12 30 -2z m2292 12 c-3 -3 -12 -4 -19 -1
-8 3 -5 6 6 6 11 1 17 -2 13 -5z m-2030 -50 c-9 -10 -47 -12 -47 -3 0 5 10 9
23 10 12 0 16 3 9 6 -6 2 -9 9 -6 15 4 7 10 4 16 -6 6 -10 8 -20 5 -22z m1245
-29 c-3 -16 -1 -17 11 -7 16 13 119 14 111 1 -2 -4 0 -10 6 -14 5 -3 10 -1 10
4 0 6 7 11 15 11 8 0 15 -4 15 -10 0 -5 11 -10 25 -10 32 0 32 -13 -2 -40 -22
-16 -23 -19 -5 -10 12 6 28 8 34 4 7 -4 8 -3 4 4 -8 14 -4 15 18 6 26 -10 18
-31 -14 -43 -29 -10 -34 -7 -31 14 1 6 -8 0 -18 -13 -11 -13 -22 -23 -25 -22
-4 0 -7 -3 -8 -7 -2 -4 16 -8 39 -9 24 -1 40 2 38 7 -3 4 -1 10 5 14 5 3 10 0
10 -7 0 -7 12 -1 25 15 27 31 35 33 35 12 0 -21 17 -19 30 5 7 12 16 17 27 13
9 -4 14 -2 10 3 -3 6 8 8 29 6 19 -2 34 -8 34 -13 0 -5 7 -6 15 -3 8 4 15 2
15 -3 0 -5 8 -9 18 -9 69 -2 256 -16 268 -21 16 -6 19 -29 5 -38 -5 -3 -17 2
-26 11 -11 12 -19 14 -27 6 -6 -6 -17 -8 -26 -5 -11 5 -13 3 -7 -7 5 -8 4 -11
-3 -6 -6 3 -17 -3 -26 -15 -10 -15 -21 -20 -35 -16 -12 3 -24 1 -27 -4 -3 -6
-11 -8 -17 -6 -7 2 -22 0 -34 -4 -13 -5 -33 -4 -45 1 -19 7 -16 9 19 9 23 1
46 7 50 14 10 15 43 19 43 4 0 -6 3 -8 6 -4 4 3 -4 19 -16 34 -13 15 -21 21
-17 12 4 -13 -1 -15 -32 -12 -28 3 -42 -1 -56 -17 -20 -22 -41 -28 -29 -7 8
12 -17 -5 -44 -30 -7 -7 -18 -13 -23 -13 -15 0 -10 37 7 54 8 9 12 21 8 27 -4
7 1 18 11 25 10 8 16 16 14 18 -7 8 -75 -18 -77 -29 -2 -10 1 -11 36 -14 13
-1 12 -5 -8 -16 -14 -7 -26 -9 -28 -4 -7 19 -23 8 -17 -11 5 -15 3 -19 -10
-14 -9 4 -14 13 -11 20 4 10 -2 13 -19 12 -16 -2 -21 -6 -15 -12 16 -16 12
-46 -5 -40 -8 4 -15 1 -15 -6 0 -6 -5 -8 -11 -5 -7 5 -5 13 6 25 16 17 16 18
0 16 -9 -1 -20 -9 -25 -16 -5 -8 -22 -15 -39 -16 -37 -2 -40 3 -8 15 20 8 21
10 3 16 -11 5 -21 3 -25 -4 -4 -7 -21 -16 -37 -20 -16 -5 -28 -14 -26 -20 1
-7 -2 -10 -8 -6 -13 8 -13 35 1 35 6 0 8 10 5 23 -3 12 -3 16 0 10 7 -15 44
-18 44 -3 0 5 -8 6 -17 3 -15 -6 -16 -4 -6 8 8 9 9 20 3 29 -8 12 -13 13 -30
3 -11 -7 -29 -13 -39 -13 -11 0 -23 -5 -27 -12 -5 -7 -2 -9 8 -6 13 5 14 3 4
-18 -9 -20 -13 -21 -22 -10 -7 10 -15 12 -25 5 -8 -5 -24 -9 -36 -9 -13 0 -23
-3 -23 -8 0 -4 -14 -13 -30 -20 -31 -14 -57 -49 -45 -60 4 -4 11 1 16 10 9 17
44 14 56 -5 4 -6 0 -8 -10 -4 -10 4 -17 0 -20 -11 -3 -12 -5 -10 -6 6 -1 23
-1 23 -24 -4 -17 -19 -29 -25 -42 -21 -15 6 -15 10 -4 24 12 14 8 14 -21 -3
-19 -10 -41 -27 -48 -36 -7 -10 -18 -18 -23 -18 -6 0 -3 7 5 16 17 17 21 34 8
34 -4 0 -14 -6 -20 -12 -7 -7 -16 -13 -20 -14 -33 -4 -70 -21 -85 -41 -10 -13
-27 -23 -37 -23 -10 0 -22 -4 -25 -10 -7 -12 -35 -14 -35 -2 0 4 14 13 30 20
19 9 30 21 30 33 0 11 -5 17 -10 14 -6 -4 -8 -10 -5 -15 17 -28 -78 -13 -101
16 -8 9 -19 11 -40 4 -17 -5 -21 -9 -11 -9 10 -1 15 -5 12 -11 -8 -13 8 -13
21 0 8 8 15 6 24 -5 11 -13 9 -15 -11 -16 -35 -2 -53 2 -60 13 -3 5 -10 8 -15
7 -5 -2 -19 0 -31 5 -19 6 -21 11 -13 27 6 10 16 19 23 19 7 0 8 -3 2 -8 -16
-12 -16 -32 1 -32 8 0 12 5 9 10 -3 6 0 11 7 12 14 1 30 5 38 8 3 1 16 4 30 6
13 3 28 11 33 19 4 8 16 15 25 15 13 -1 11 -6 -10 -23 -16 -13 -28 -26 -28
-30 0 -14 45 -2 58 16 9 12 21 16 34 11 13 -4 18 -2 14 4 -10 16 13 25 30 11
12 -10 13 -9 8 7 -6 15 -4 17 6 7 15 -13 40 -7 58 15 7 10 12 11 12 4 0 -25
57 -4 98 35 20 20 56 17 48 -3 -5 -14 -4 -15 8 -5 20 16 0 40 -28 35 -11 -2
-36 1 -55 6 -20 5 -48 12 -63 15 -37 7 -35 19 7 62 19 20 35 44 35 55 0 10 7
18 15 18 8 0 15 -5 15 -12 0 -6 8 -4 19 6 23 21 76 33 65 15 -5 -9 -2 -10 9
-6 11 4 17 1 17 -7 0 -20 -12 -27 -27 -14 -10 8 -17 7 -26 -6 -7 -10 -17 -17
-22 -16 -25 5 -65 -1 -65 -9 0 -14 78 -11 90 3 5 7 27 12 49 12 21 -1 37 2 34
7 -2 4 8 7 22 7 37 0 68 18 61 37 -4 9 -1 13 6 10 7 -2 11 -12 10 -22z m-1212
5 c-8 -5 -19 -10 -25 -10 -5 0 -3 5 5 10 8 5 20 10 25 10 6 0 3 -5 -5 -10z
m1123 -4 c4 -10 1 -13 -8 -9 -8 3 -12 9 -9 14 7 12 11 11 17 -5z m-1451 -39
c-12 -7 -20 -16 -17 -19 4 -3 2 -9 -4 -13 -15 -9 -14 18 1 33 7 7 19 12 28 12
10 -1 7 -5 -8 -13z m318 3 c-8 -5 -24 -9 -35 -9 -16 1 -16 2 5 9 35 11 48 11
30 0z m65 -8 c-3 -3 -11 0 -18 7 -9 10 -8 11 6 5 10 -3 15 -9 12 -12z m-160
-2 c3 -5 -1 -10 -9 -10 -9 0 -16 5 -16 10 0 6 4 10 9 10 6 0 13 -4 16 -10z
m692 4 c-3 -3 -12 -4 -19 -1 -8 3 -5 6 6 6 11 1 17 -2 13 -5z m-732 -14 c3 -5
-1 -10 -10 -10 -9 0 -13 5 -10 10 3 6 8 10 10 10 2 0 7 -4 10 -10z m180 0 c3
-5 1 -10 -4 -10 -6 0 -11 5 -11 10 0 6 2 10 4 10 3 0 8 -4 11 -10z m-410 -20
c-3 -5 -13 -10 -21 -10 -8 0 -12 5 -9 10 3 6 13 10 21 10 8 0 12 -4 9 -10z
m-292 -7 c-7 -2 -19 -2 -25 0 -7 3 -2 5 12 5 14 0 19 -2 13 -5z m585 -5 c-2
-9 8 -12 27 -11 17 1 22 -1 12 -4 -9 -2 -14 -9 -11 -15 4 -6 -2 -5 -15 1 -14
8 -21 8 -21 1 0 -5 -8 -10 -17 -10 -24 -1 -66 -37 -58 -50 3 -5 -1 -10 -9 -10
-9 0 -16 -4 -16 -10 0 -5 -5 -10 -11 -10 -5 0 -7 5 -4 10 3 6 1 10 -4 10 -6 0
-11 -4 -11 -10 0 -5 -4 -10 -9 -10 -21 0 -6 35 15 36 27 2 73 34 74 52 0 6 6
12 14 12 7 0 19 7 26 15 15 18 21 19 18 3z m157 -54 c-8 -9 -19 -13 -24 -9 -5
3 -13 0 -17 -6 -4 -8 -9 -7 -15 2 -6 10 -9 11 -9 2 0 -7 -8 -13 -17 -13 -16 1
-16 2 2 13 11 6 23 12 28 13 4 1 9 3 12 4 3 1 9 3 14 4 5 0 13 4 17 8 4 4 11
5 15 2 5 -3 2 -12 -6 -20z m-312 9 c-7 -2 -19 -2 -25 0 -7 3 -2 5 12 5 14 0
19 -2 13 -5z m160 -28 c-10 -7 -22 -11 -27 -8 -5 4 -1 12 9 19 10 7 22 11 27
8 5 -3 1 -12 -9 -19z m-569 0 c-11 -8 -25 -15 -33 -15 -23 0 5 25 30 27 20 2
21 1 3 -12z m966 5 c0 -5 -5 -10 -11 -10 -5 0 -7 5 -4 10 3 6 8 10 11 10 2 0
4 -4 4 -10z m-1030 -5 c0 -2 -10 -9 -22 -15 -22 -11 -22 -10 -4 4 21 17 26 19
26 11z m2715 -5 c3 -5 1 -10 -4 -10 -6 0 -11 5 -11 10 0 6 2 10 4 10 3 0 8 -4
11 -10z m116 -2 c0 -10 2 -10 6 0 6 15 41 15 71 -1 l22 -13 -20 -22 c-12 -12
-25 -22 -31 -22 -6 0 -8 -4 -4 -9 3 -6 22 -4 47 5 42 15 55 13 43 -5 -3 -6
-21 -11 -40 -11 -20 0 -35 -6 -39 -15 -7 -20 -26 -19 -26 2 0 14 -3 13 -23 -5
-25 -23 -47 -29 -47 -12 0 6 7 10 16 10 8 0 13 4 9 10 -3 5 -12 7 -20 3 -11
-4 -13 -1 -9 11 4 11 1 16 -11 16 -13 0 -16 -6 -11 -25 5 -18 2 -25 -9 -25
-14 0 -20 13 -15 35 1 5 -7 2 -17 -7 -14 -12 -23 -14 -43 -5 -21 8 -22 11 -7
14 9 3 17 8 17 13 0 4 -9 6 -20 3 -11 -3 -20 -12 -20 -19 0 -8 -9 -14 -19 -14
-21 0 -84 -30 -89 -43 -2 -4 -10 -3 -18 4 -11 9 -15 8 -20 -5 -8 -21 -20 -20
-51 4 l-25 20 25 9 c14 5 27 16 30 23 4 9 8 10 14 2 9 -13 73 -7 73 7 0 5 7 9
16 9 8 0 12 -4 9 -10 -3 -5 1 -10 10 -10 12 0 14 6 9 26 -5 19 -4 25 5 20 6
-4 11 -1 11 8 0 9 7 16 16 16 13 0 14 -3 5 -14 -8 -9 -8 -16 -2 -20 5 -4 12
-2 16 4 3 5 18 10 33 10 15 0 41 9 57 20 34 22 75 26 76 8z m-2414 -13 c0 -8
-4 -15 -9 -15 -10 0 -11 14 -1 23 9 10 10 9 10 -8z m258 5 c3 -5 1 -10 -4 -10
-6 0 -11 5 -11 10 0 6 2 10 4 10 3 0 8 -4 11 -10z m742 -15 c0 -8 -4 -15 -9
-15 -4 0 -8 7 -8 15 0 8 4 15 8 15 5 0 9 -7 9 -15z m122 12 c-2 -1 -14 -11
-26 -21 -23 -19 -23 -19 -23 2 0 17 6 22 27 22 14 0 24 -1 22 -3z m441 -1 c0
-2 -7 -7 -16 -10 -8 -3 -12 -2 -9 4 6 10 25 14 25 6z m-1396 -41 c-26 -19 -31
-9 -8 16 11 12 20 16 22 9 2 -6 -4 -17 -14 -25z m881 25 c-27 -12 -43 -12 -25
0 8 5 22 9 30 9 10 0 8 -3 -5 -9z m1525 0 c0 -5 -5 -10 -11 -10 -5 0 -7 5 -4
10 3 6 8 10 11 10 2 0 4 -4 4 -10z m-3055 -29 c-8 -13 -45 -15 -45 -2 0 5 10
11 23 13 27 5 31 3 22 -11z m2122 -13 c-3 -7 -5 -2 -5 12 0 14 2 19 5 13 2 -7
2 -19 0 -25z m998 22 c-4 -6 -20 -10 -36 -10 -39 0 -30 14 10 17 18 1 29 -2
26 -7z m-2592 -6 c3 -4 -9 -14 -28 -24 -38 -19 -97 -31 -89 -18 3 4 16 8 30 8
14 0 24 6 24 14 0 9 7 12 20 9 11 -3 20 0 20 6 0 12 13 15 23 5z m447 -6 c0
-14 -81 -54 -150 -74 -25 -7 -56 -16 -69 -20 -17 -5 -22 -4 -17 4 4 7 14 12
22 12 8 0 14 4 14 10 0 5 10 9 23 8 12 0 36 7 52 16 17 9 26 16 20 17 -5 0 0
4 13 9 12 5 29 7 37 4 8 -3 22 1 30 10 20 19 25 20 25 4z m-380 -18 c0 -5 -12
-10 -27 -9 -25 0 -26 1 -8 9 27 12 35 12 35 0z m1362 -17 c-6 -3 -9 -10 -6
-15 4 -7 2 -8 -5 -4 -9 6 -9 11 0 22 6 8 15 12 18 8 3 -4 0 -9 -7 -11z m1433
-3 c12 10 19 10 28 1 9 -9 7 -13 -11 -17 -12 -4 -22 -10 -22 -13 0 -4 -12 -8
-27 -8 -16 0 -34 -2 -42 -4 -7 -2 -16 2 -18 9 -3 7 3 12 15 12 11 0 25 7 32
15 10 12 15 13 21 4 6 -10 11 -10 24 1z m-2092 -25 c-10 -13 -24 -22 -31 -20
-7 3 -15 -2 -18 -10 -9 -23 -59 -19 -61 4 -1 15 10 22 55 34 31 8 61 15 65 16
4 0 0 -10 -10 -24z m787 16 c0 -5 -8 -11 -17 -14 -10 -2 -27 -8 -38 -12 -11
-4 -7 2 10 14 32 23 45 26 45 12z m-1123 -17 c-3 -3 -12 -4 -19 -1 -8 3 -5 6
6 6 11 1 17 -2 13 -5z m-427 -14 c0 -5 -8 -10 -17 -10 -15 0 -16 2 -3 10 19
12 20 12 20 0z m532 -22 c-7 -7 -12 -8 -12 -2 0 14 12 26 19 19 2 -3 -1 -11
-7 -17z m52 7 c-4 -8 -10 -15 -15 -15 -5 0 -9 7 -9 15 0 8 7 15 15 15 9 0 12
-6 9 -15z m49 1 c4 -10 1 -13 -9 -9 -7 3 -14 9 -14 14 0 14 17 10 23 -5z m752
4 c3 -5 1 -10 -4 -10 -6 0 -11 5 -11 10 0 6 2 10 4 10 3 0 8 -4 11 -10z
m-1230 -10 c-3 -5 -10 -10 -16 -10 -5 0 -9 5 -9 10 0 6 7 10 16 10 8 0 12 -4
9 -10z m2565 -16 c0 -8 -6 -11 -15 -8 -8 4 -15 12 -15 20 0 8 6 11 15 8 8 -4
15 -12 15 -20z m-1960 6 c0 -5 -10 -10 -22 -10 -19 0 -20 2 -8 10 19 13 30 13
30 0z m-713 -14 c-15 -7 -24 -16 -20 -20 4 -4 -1 -4 -11 0 -17 6 -16 8 5 20
13 7 31 13 39 13 8 0 3 -6 -13 -13z m553 -1 c-7 -9 -15 -13 -17 -11 -7 7 7 26
19 26 6 0 6 -6 -2 -15z m-1554 -10 c-3 -9 0 -15 10 -15 9 0 12 -5 8 -12 -6
-10 -4 -10 7 0 7 6 33 11 59 11 25 -1 36 -3 25 -6 -11 -3 -24 -9 -29 -14 -6
-5 -32 -9 -59 -9 -40 0 -48 -3 -46 -17 4 -32 -11 -51 -34 -45 -21 6 -21 6 3
12 l25 7 -28 8 c-17 4 -33 3 -42 -5 -20 -17 -19 -31 3 -23 13 5 12 1 -5 -16
-29 -28 -31 -27 -31 13 0 21 6 37 14 40 8 3 14 10 14 16 0 7 -18 11 -50 9 -61
-3 -69 3 -34 30 20 16 31 18 45 10 10 -5 19 -6 19 -1 0 5 16 9 36 10 20 1 39
4 42 7 3 3 16 5 30 5 17 0 23 -4 18 -15z m2114 -6 c-7 -11 -14 -19 -16 -16 -7
7 7 37 17 37 6 0 5 -9 -1 -21z m-930 -9 c0 -5 -7 -10 -16 -10 -8 0 -12 5 -9
10 3 6 10 10 16 10 5 0 9 -4 9 -10z m677 -5 c0 -8 -4 -12 -9 -9 -5 3 -6 10 -3
15 9 13 12 11 12 -6z m-2092 -15 c-22 -24 -65 -29 -45 -6 6 8 21 17 33 19 12
2 24 5 26 6 2 0 -4 -8 -14 -19z m1890 10 c-3 -5 -12 -10 -18 -10 -7 0 -6 4 3
10 19 12 23 12 15 0z m-1170 -10 c-3 -5 -14 -10 -23 -10 -15 0 -15 2 -2 10 20
13 33 13 25 0z m645 6 c0 -2 -9 -6 -20 -9 -11 -3 -20 -1 -20 4 0 5 9 9 20 9
11 0 20 -2 20 -4z m-1440 -21 c-7 -8 -18 -15 -24 -15 -6 0 -2 7 8 15 25 19 32
19 16 0z m1003 8 c-7 -2 -19 -2 -25 0 -7 3 -2 5 12 5 14 0 19 -2 13 -5z m127
-33 c-24 -15 -36 -11 -14 4 10 8 21 12 24 10 2 -3 -2 -9 -10 -14z m600 16 c0
-11 -19 -15 -25 -6 -3 5 1 10 9 10 9 0 16 -2 16 -4z m-55 -16 c3 -6 -1 -7 -9
-4 -18 7 -21 14 -7 14 6 0 13 -4 16 -10z m-1090 -10 c-3 -5 -14 -10 -23 -10
-15 0 -15 2 -2 10 20 13 33 13 25 0z m-425 -3 c0 -2 -10 -12 -22 -23 -12 -10
-18 -13 -14 -6 5 8 0 12 -16 13 -19 1 -18 3 7 9 39 10 45 11 45 7z m510 -12
c0 -9 -6 -12 -16 -8 -13 5 -13 7 -2 14 17 11 18 11 18 -6z m1142 -7 c-3 -14
-2 -19 6 -14 7 4 12 1 12 -9 0 -10 5 -14 13 -10 6 4 -5 -9 -27 -29 -21 -20
-50 -39 -65 -42 -14 -4 -32 -12 -40 -18 -8 -6 -4 4 9 22 13 17 28 32 34 32 5
0 6 3 3 6 -7 7 22 64 38 76 18 13 23 9 17 -14z m-1402 2 c0 -5 -4 -10 -10 -10
-5 0 -10 5 -10 10 0 6 5 10 10 10 6 0 10 -4 10 -10z m1534 -21 c-10 -11 -20
-16 -22 -10 -3 8 -9 8 -23 1 -11 -6 -19 -7 -19 -1 0 13 27 21 47 14 11 -4 14
-3 9 5 -4 7 -1 12 10 12 16 0 15 -2 -2 -21z m-1301 4 c-7 -2 -21 -2 -30 0 -10
3 -4 5 12 5 17 0 24 -2 18 -5z m367 -3 c-20 -13 -33 -13 -25 0 3 6 14 10 23
10 15 0 15 -2 2 -10z m590 -21 c-14 -15 -35 -39 -48 -53 -40 -45 -74 -29 -47
23 17 33 56 57 95 57 l25 1 -25 -28z m-633 0 c-2 -22 -41 -44 -64 -35 -22 9
-5 45 21 46 5 0 1 -10 -10 -22 -18 -20 -18 -21 -1 -15 10 4 23 7 28 7 6 0 7 5
3 11 -3 6 0 15 7 20 19 12 18 12 16 -12z m-827 7 c0 -2 -8 -10 -17 -17 -16
-13 -17 -12 -4 4 13 16 21 21 21 13z m1911 -7 c23 8 30 8 26 -2 -2 -6 -15 -13
-30 -14 -14 -1 -41 -6 -59 -11 -44 -12 -68 -4 -36 12 16 9 25 9 30 2 5 -7 8
-3 8 8 0 15 3 16 15 6 11 -9 22 -9 46 -1z m131 -27 c-7 -2 -10 -8 -7 -13 3 -5
14 -3 25 3 11 7 23 9 27 4 12 -11 -25 -35 -46 -29 -11 3 -21 -2 -25 -12 -3 -9
-10 -13 -16 -10 -6 4 -4 15 5 29 8 12 12 26 8 31 -5 4 -2 5 5 1 6 -4 12 -2 12
4 0 6 5 8 12 4 9 -6 9 -9 0 -12z m-1842 -2 c0 -5 -5 -10 -11 -10 -5 0 -7 5 -4
10 3 6 8 10 11 10 2 0 4 -4 4 -10z m300 -4 c0 -3 -4 -8 -10 -11 -5 -3 -10 -1
-10 4 0 6 5 11 10 11 6 0 10 -2 10 -4z m1467 -26 c-1 -12 -12 -30 -24 -42 -22
-21 -23 -21 -23 -2 0 11 9 27 20 37 12 10 18 23 14 29 -4 6 -3 8 4 4 6 -3 10
-15 9 -26z m223 20 c0 -5 -10 -10 -22 -9 -22 0 -22 1 -3 9 11 5 21 9 23 9 1 1
2 -3 2 -9z m84 -9 c7 -10 -17 -21 -42 -21 -15 1 -14 3 2 15 23 17 33 19 40 6z
m-2377 -7 c-3 -3 -12 -4 -19 -1 -8 3 -5 6 6 6 11 1 17 -2 13 -5z m1127 -9 c-4
-8 -11 -15 -16 -15 -6 0 -5 6 2 15 7 8 14 15 16 15 2 0 1 -7 -2 -15z m247 -8
c-10 -9 -11 -8 -5 6 3 10 9 15 12 12 3 -3 0 -11 -7 -18z m-1271 3 c0 -5 -7
-10 -16 -10 -8 0 -12 5 -9 10 3 6 10 10 16 10 5 0 9 -4 9 -10z m1865 -7 c-16
-9 -33 -21 -37 -27 -4 -6 -8 -7 -8 -2 0 18 33 46 54 46 18 -1 16 -3 -9 -17z
m345 13 c0 -2 -12 -11 -27 -20 l-28 -17 24 20 c23 21 31 25 31 17z m-2260 -28
c0 -6 -6 -5 -15 2 -8 7 -15 14 -15 16 0 2 7 1 15 -2 8 -4 15 -11 15 -16z m784
3 c-5 -5 -20 -12 -34 -16 -23 -6 -22 -5 5 13 29 19 48 21 29 3z m516 -12 c0
-6 -4 -7 -10 -4 -5 3 -10 11 -10 16 0 6 5 7 10 4 6 -3 10 -11 10 -16z m540 7
c0 -3 -4 -8 -10 -11 -5 -3 -10 -1 -10 4 0 6 5 11 10 11 6 0 10 -2 10 -4z
m-675 -26 c-3 -5 -11 -10 -16 -10 -6 0 -7 5 -4 10 3 6 11 10 16 10 6 0 7 -4 4
-10z m565 -6 c0 -8 -5 -12 -10 -9 -6 4 -8 11 -5 16 9 14 15 11 15 -7z m-810
-9 c-7 -8 -17 -15 -22 -15 -6 0 -5 7 2 15 7 8 17 15 22 15 6 0 5 -7 -2 -15z
m464 4 c-7 -12 11 -19 26 -9 8 5 21 3 31 -3 14 -9 26 -9 50 0 26 10 29 10 19
-3 -10 -11 -10 -14 1 -14 8 0 9 -3 4 -9 -6 -6 -31 -6 -64 0 -37 7 -57 7 -64 0
-6 -6 -27 -11 -47 -11 -19 0 -45 -7 -56 -15 -21 -14 -104 -46 -104 -39 0 10
57 54 71 54 9 0 19 7 23 15 3 8 15 15 26 15 11 0 20 5 20 11 0 5 -5 7 -12 3
-7 -4 -8 -3 -4 4 4 7 25 11 46 10 22 -1 37 -5 34 -9z m611 1 c-3 -5 4 -11 17
-11 13 -1 0 -6 -29 -13 -29 -6 -58 -17 -65 -23 -16 -17 -28 -16 -28 1 0 16 21
26 55 26 12 0 28 7 35 15 14 17 24 20 15 5z m-171 -19 c6 -10 -43 -35 -63 -32
-7 1 -10 -2 -6 -8 8 -14 -1 -14 -26 0 -15 7 -24 7 -35 -2 -11 -9 -17 -9 -29 1
-11 10 -18 9 -30 -4 -19 -18 -31 -20 -40 -7 -7 12 19 26 63 34 19 4 32 2 32
-4 0 -6 4 -8 8 -5 4 3 28 7 52 10 25 3 46 10 48 16 4 12 19 13 26 1z m351 -5
c-11 -8 -24 -12 -28 -9 -11 7 12 23 32 23 11 0 9 -4 -4 -14z m125 -10 c0 -2
-7 -7 -16 -10 -8 -3 -12 -2 -9 4 6 10 25 14 25 6z m-733 -13 c-4 -3 2 -13 13
-20 11 -8 18 -19 14 -24 -4 -6 -11 -6 -20 2 -10 8 -18 8 -27 1 -15 -13 -57 -5
-57 10 0 6 7 8 15 5 7 -3 24 3 37 13 22 18 39 27 25 13z m403 -13 c-8 -5 -17
-7 -19 -4 -3 3 1 9 9 14 8 5 17 7 19 4 3 -3 -1 -9 -9 -14z m-580 -4 c0 -3 -4
-8 -10 -11 -5 -3 -10 -1 -10 4 0 6 5 11 10 11 6 0 10 -2 10 -4z m-735 -16 c-3
-5 -12 -10 -18 -10 -7 0 -6 4 3 10 19 12 23 12 15 0z m1402 4 c-3 -3 -12 -4
-19 -1 -8 3 -5 6 6 6 11 1 17 -2 13 -5z m-1357 -19 c0 -9 -12 -20 -26 -25 -14
-6 -48 -33 -75 -61 -36 -37 -54 -49 -68 -44 -11 3 -22 1 -26 -5 -3 -5 -21 -10
-40 -10 -19 0 -36 -4 -40 -9 -9 -15 -65 -41 -65 -30 0 5 4 9 8 9 4 0 27 18 51
41 27 27 49 39 60 36 11 -2 26 4 35 14 20 24 46 25 47 2 0 -14 2 -13 9 4 8 19
102 90 123 92 4 1 7 -6 7 -14z m1200 0 c0 -8 -6 -15 -14 -15 -8 0 -17 -8 -20
-17 -5 -12 -10 -13 -18 -5 -16 16 -3 40 24 45 13 2 24 5 26 6 1 0 2 -6 2 -14z
m-520 -4 c0 -12 -20 -25 -27 -18 -7 7 6 27 18 27 5 0 9 -4 9 -9z m-237 -17
c-18 -9 -30 -20 -27 -25 3 -5 -5 -9 -18 -9 -20 0 -19 2 12 25 19 13 42 24 50
24 8 0 0 -7 -17 -15z m327 1 c-7 -9 -15 -13 -19 -10 -3 3 1 10 9 15 21 14 24
12 10 -5z m-1030 -9 c0 -2 -7 -7 -16 -10 -8 -3 -12 -2 -9 4 6 10 25 14 25 6z
m1255 -6 c3 -5 2 -10 -4 -10 -5 0 -13 5 -16 10 -3 6 -2 10 4 10 5 0 13 -4 16
-10z m80 -19 c-3 -6 -11 -11 -17 -11 -6 0 -6 6 2 15 14 17 26 13 15 -4z m-725
-1 c0 -5 -5 -10 -11 -10 -5 0 -7 5 -4 10 3 6 8 10 11 10 2 0 4 -4 4 -10z m450
0 c0 -5 -7 -10 -15 -10 -8 0 -15 5 -15 10 0 6 7 10 15 10 8 0 15 -4 15 -10z
m-583 -15 c0 -8 -7 -15 -15 -15 -12 0 -12 3 -2 15 7 8 13 15 15 15 1 0 2 -7 2
-15z m383 5 c0 -5 -8 -10 -17 -10 -15 0 -16 2 -3 10 19 12 20 12 20 0z m-880
-14 c0 -3 -4 -8 -10 -11 -5 -3 -10 -1 -10 4 0 6 5 11 10 11 6 0 10 -2 10 -4z
m715 -16 c-3 -5 -1 -10 6 -10 7 0 10 -3 6 -6 -9 -9 -28 6 -22 17 4 5 8 9 11 9
3 0 2 -4 -1 -10z m195 6 c0 -3 -4 -8 -10 -11 -5 -3 -10 -1 -10 4 0 6 5 11 10
11 6 0 10 -2 10 -4z m-305 -26 c-21 -23 -35 -26 -35 -6 0 15 14 24 39 25 11 1
10 -4 -4 -19z m-265 0 c0 -5 -8 -10 -17 -10 -15 0 -16 2 -3 10 19 12 20 12 20
0z m350 0 c0 -5 -5 -10 -11 -10 -5 0 -7 5 -4 10 3 6 8 10 11 10 2 0 4 -4 4
-10z m220 -40 c0 -5 -7 -10 -16 -10 -8 0 -12 5 -9 10 3 6 10 10 16 10 5 0 9
-4 9 -10z m-355 -40 c3 -5 -1 -10 -9 -10 -9 0 -16 5 -16 10 0 6 4 10 9 10 6 0
13 -4 16 -10z m-595 -25 c0 -8 -7 -15 -15 -15 -16 0 -20 12 -8 23 11 12 23 8
23 -8z m477 -1 c-3 -3 -12 -4 -19 -1 -8 3 -5 6 6 6 11 1 17 -2 13 -5z"/>
<path d="M1220 3585 c0 -9 -9 -19 -19 -22 -12 -3 -17 -11 -14 -19 3 -8 9 -12
13 -9 5 3 12 -5 16 -17 6 -20 8 -20 19 -5 7 9 17 17 22 17 6 0 10 14 11 30 0
17 -4 28 -9 24 -5 -3 -16 0 -24 6 -12 10 -15 9 -15 -5z"/>
<path d="M1915 1940 c-3 -6 2 -13 12 -17 10 -3 21 -8 26 -10 4 -2 7 5 7 16 0
22 -33 30 -45 11z"/>
<path d="M1990 1636 c0 -2 7 -7 16 -10 8 -3 12 -2 9 4 -6 10 -25 14 -25 6z"/>
<path d="M1995 1560 c-3 -5 -1 -10 4 -10 6 0 11 5 11 10 0 6 -2 10 -4 10 -3 0
-8 -4 -11 -10z"/>
<path d="M4546 1395 c-3 -8 -1 -15 4 -15 6 0 10 4 10 9 0 5 12 12 28 14 26 4
26 4 -4 6 -20 0 -34 -5 -38 -14z"/>
<path d="M4600 1380 c0 -5 7 -7 15 -4 8 4 15 8 15 10 0 2 -7 4 -15 4 -8 0 -15
-4 -15 -10z"/>
<path d="M2930 1039 c0 -5 5 -7 10 -4 6 3 10 8 10 11 0 2 -4 4 -10 4 -5 0 -10
-5 -10 -11z"/>
<path d="M2915 1011 c-6 -5 -21 -11 -34 -13 -34 -4 -37 -24 -4 -22 45 2 72 15
66 30 -6 16 -15 18 -28 5z"/>
<path d="M2796 975 c4 -8 8 -15 10 -15 2 0 4 7 4 15 0 8 -4 15 -10 15 -5 0 -7
-7 -4 -15z"/>
<path d="M2750 931 c0 -5 9 -11 21 -14 16 -4 18 -3 8 9 -13 16 -29 19 -29 5z"/>
<path d="M3450 905 c0 -13 4 -14 20 -5 11 6 20 13 20 15 0 3 -9 5 -20 5 -11 0
-20 -7 -20 -15z"/>
<path d="M2372 760 c0 -14 2 -19 5 -12 2 6 2 18 0 25 -3 6 -5 1 -5 -13z"/>
<path d="M3702 880 c-10 -17 -10 -21 3 -27 21 -7 39 11 32 31 -8 22 -20 20
-35 -4z"/>
<path d="M3757 873 c-4 -3 -7 -16 -6 -27 0 -12 3 -15 6 -8 2 6 14 12 26 12 16
0 18 3 8 9 -11 7 -11 9 0 14 9 3 6 6 -7 6 -11 1 -24 -2 -27 -6z"/>
<path d="M2060 749 c0 -5 5 -7 10 -4 6 3 10 8 10 11 0 2 -4 4 -10 4 -5 0 -10
-5 -10 -11z"/>
<path d="M387 693 c-14 -13 -6 -20 21 -20 15 0 21 2 14 4 -6 3 -10 9 -6 14 6
10 -19 12 -29 2z"/>
<path d="M380 639 c0 -5 5 -7 10 -4 6 3 10 8 10 11 0 2 -4 4 -10 4 -5 0 -10
-5 -10 -11z"/>
<path d="M815 280 c-3 -5 -2 -10 4 -10 5 0 13 5 16 10 3 6 2 10 -4 10 -5 0
-13 -4 -16 -10z"/>
<path d="M675 210 c-19 -8 -19 -9 3 -9 12 -1 22 4 22 9 0 6 -1 10 -2 9 -2 0
-12 -4 -23 -9z"/>
<path d="M4433 5066 c19 -19 40 -21 35 -3 -3 6 -15 14 -28 15 -21 4 -22 2 -7
-12z"/>
<path d="M4526 5013 c-6 -14 -5 -15 5 -6 7 7 10 15 7 18 -3 3 -9 -2 -12 -12z"/>
<path d="M4620 4991 c0 -5 12 -8 26 -8 18 0 22 2 13 8 -18 11 -39 11 -39 0z"/>
<path d="M4515 4969 c-4 -6 -5 -12 -2 -15 2 -3 7 2 10 11 7 17 1 20 -8 4z"/>
<path d="M4435 4960 c-3 -5 -16 -10 -28 -11 -21 0 -21 -1 -2 -9 32 -14 44 -11
42 10 -1 23 -3 24 -12 10z"/>
<path d="M4556 4955 c4 -8 10 -12 15 -9 14 8 10 24 -6 24 -9 0 -12 -6 -9 -15z"/>
<path d="M4350 4920 c0 -13 20 -13 40 0 12 8 9 10 -12 10 -16 0 -28 -4 -28
-10z"/>
<path d="M4467 4913 c-2 -5 -3 -15 -2 -23 1 -8 3 -21 3 -29 2 -9 6 -10 15 -4
16 12 59 14 52 2 -4 -5 -13 -9 -21 -9 -8 0 -12 -5 -9 -10 3 -6 -2 -13 -11 -17
-10 -4 -19 -2 -21 4 -2 6 -13 8 -25 5 -17 -4 -19 -2 -13 17 4 13 2 21 -5 21
-6 0 -10 -12 -8 -27 2 -23 9 -29 38 -33 30 -5 32 -6 15 -14 -41 -18 -55 -16
-61 9 -4 16 -13 25 -26 25 -15 0 -19 5 -16 18 4 13 -1 18 -16 19 -12 1 -16 -1
-9 -4 7 -2 10 -10 7 -18 -3 -8 6 -20 23 -29 20 -11 23 -15 10 -16 -15 0 -16
-3 -7 -20 8 -15 8 -20 -1 -18 -7 2 -19 -9 -26 -24 -16 -32 -38 -38 -30 -9 3
14 -1 19 -18 19 -16 0 -22 -5 -18 -14 3 -8 0 -14 -6 -14 -6 0 -10 -10 -8 -22
1 -18 -3 -23 -22 -23 -14 0 -26 -5 -28 -12 -2 -6 4 -10 13 -9 9 0 19 -5 21
-11 3 -9 -5 -13 -23 -13 -27 0 -27 -1 -8 -15 18 -14 18 -16 2 -29 -10 -7 -18
-21 -18 -30 0 -9 -7 -16 -15 -16 -8 0 -15 -5 -15 -11 0 -5 4 -8 9 -4 5 3 12 1
15 -4 4 -5 -2 -12 -12 -15 -11 -4 -24 -18 -31 -32 -6 -15 -7 -23 -1 -19 12 8
-11 -47 -24 -56 -5 -4 0 -12 12 -18 18 -9 20 -8 16 12 -2 12 -2 16 2 10 3 -7
12 -13 20 -13 8 0 14 -4 14 -10 0 -5 18 -13 40 -16 44 -7 52 -19 19 -27 -12
-3 -28 0 -36 9 -17 16 -23 17 -43 4 -13 -8 -12 -10 3 -10 10 0 16 -4 13 -9 -3
-5 5 -9 19 -10 14 -1 36 -1 50 -2 21 -1 23 -4 14 -20 -5 -11 -7 -29 -4 -39 7
-22 31 -27 38 -7 7 18 43 -6 39 -27 -2 -9 2 -16 9 -16 7 0 9 10 6 30 -6 27 -4
30 21 30 19 0 23 -3 13 -9 -10 -7 -10 -10 -1 -16 7 -4 16 -1 21 6 6 10 9 6 9
-14 0 -27 2 -28 36 -21 l37 7 -6 -44 c-3 -24 -9 -60 -12 -80 -7 -34 -5 -37 21
-42 16 -3 34 -1 40 4 6 5 14 6 17 3 3 -3 12 -2 19 2 7 5 25 9 39 9 20 0 29 -7
37 -28 7 -19 7 -25 0 -21 -6 4 -9 1 -6 -7 2 -7 22 -14 45 -15 34 -2 46 3 69
27 15 15 32 26 37 22 6 -4 7 4 4 19 -5 18 -2 28 8 32 8 3 14 2 14 -2 -3 -17 2
-32 10 -32 14 0 21 44 8 52 -9 6 -7 12 6 22 21 16 37 66 37 114 0 20 4 31 10
27 6 -3 10 1 10 9 0 10 -6 13 -15 10 -19 -8 -19 13 -1 49 8 15 11 27 7 27 -4
0 -15 16 -24 35 -9 19 -21 35 -27 35 -5 0 -9 3 -8 8 3 16 -15 42 -29 42 -17 0
-39 23 -53 58 -10 23 -34 30 -45 12 -3 -5 1 -10 10 -10 9 0 13 -5 10 -10 -4
-6 -1 -18 6 -26 6 -8 9 -17 6 -20 -10 -10 -57 44 -57 66 0 12 -4 18 -10 15 -5
-3 -10 1 -10 9 0 17 70 66 94 66 24 0 58 35 61 64 2 15 9 34 17 43 9 12 9 15
1 9 -21 -12 -15 4 8 22 l20 17 -21 23 c-30 32 -58 25 -44 -12 5 -13 9 -14 20
-5 11 9 14 8 14 -5 0 -9 -6 -16 -14 -16 -8 0 -17 -7 -20 -16 -5 -13 -14 -15
-44 -9 -20 3 -44 8 -52 9 -9 1 -20 5 -25 8 -6 3 -22 5 -37 4 -17 -1 -28 3 -28
11 0 7 -9 13 -21 13 -11 0 -18 -4 -15 -9 10 -15 -12 -61 -29 -61 -18 0 -20 17
-3 22 6 2 12 14 13 25 1 15 -3 19 -13 15 -10 -3 -13 -1 -8 6 4 7 14 12 23 12
10 0 14 6 10 19 -3 12 1 22 10 25 8 3 11 1 8 -4 -9 -15 17 -11 39 5 21 16 24
14 -57 34 -54 13 -104 14 -110 4z m56 -159 c-3 -7 -22 -11 -51 -9 -61 5 -59 4
-44 14 21 13 100 8 95 -5z m258 -695 c-13 -11 -26 -17 -29 -14 -7 6 29 34 43
34 6 0 -1 -9 -14 -20z"/>
<path d="M4435 4900 c-3 -5 -1 -10 4 -10 6 0 11 5 11 10 0 6 -2 10 -4 10 -3 0
-8 -4 -11 -10z"/>
<path d="M4110 4886 c0 -10 28 -13 41 -5 10 6 7 9 -13 9 -16 0 -28 -2 -28 -4z"/>
<path d="M4750 4870 c0 -5 5 -10 11 -10 5 0 7 5 4 10 -3 6 -8 10 -11 10 -2 0
-4 -4 -4 -10z"/>
<path d="M4105 4860 c-3 -5 -1 -10 4 -10 6 0 11 5 11 10 0 6 -2 10 -4 10 -3 0
-8 -4 -11 -10z"/>
<path d="M4390 4860 c0 -5 5 -10 11 -10 5 0 7 5 4 10 -3 6 -8 10 -11 10 -2 0
-4 -4 -4 -10z"/>
<path d="M4337 4805 c3 -8 9 -12 14 -9 12 7 11 11 -5 17 -10 4 -13 1 -9 -8z"/>
<path d="M4260 4770 c0 -5 5 -10 10 -10 6 0 10 5 10 10 0 6 -4 10 -10 10 -5 0
-10 -4 -10 -10z"/>
<path d="M4849 4713 c-19 -5 -34 -44 -16 -42 27 3 37 -2 37 -20 0 -11 5 -23
11 -27 8 -5 9 6 4 37 -8 50 -13 57 -36 52z"/>
<path d="M4815 4650 c-3 -5 -1 -10 4 -10 6 0 11 5 11 10 0 6 -2 10 -4 10 -3 0
-8 -4 -11 -10z"/>
<path d="M4846 4551 c-4 -6 -3 -19 3 -28 9 -17 10 -17 17 0 8 21 -10 45 -20
28z"/>
<path d="M4870 4474 c0 -10 33 -33 48 -34 18 0 15 27 -4 34 -20 8 -44 8 -44 0z"/>
<path d="M4921 4419 c-22 -9 -23 -11 -7 -27 9 -10 14 -21 11 -24 -3 -3 4 -8
15 -11 24 -6 41 20 21 33 -7 4 -12 10 -11 14 4 17 -7 23 -29 15z"/>
<path d="M5021 4378 c0 -7 4 -22 9 -33 8 -18 9 -17 9 7 1 15 -3 30 -9 33 -5 3
-10 0 -9 -7z"/>
<path d="M5001 4354 c0 -11 3 -14 6 -6 3 7 2 16 -1 19 -3 4 -6 -2 -5 -13z"/>
<path d="M4140 4345 c0 -8 2 -15 4 -15 2 0 6 7 10 15 3 8 1 15 -4 15 -6 0 -10
-7 -10 -15z"/>
<path d="M5097 4323 c-4 -7 -5 -23 -1 -36 3 -14 1 -28 -5 -31 -6 -4 -11 -15
-11 -24 0 -13 3 -12 16 6 9 13 14 37 12 60 -2 22 -6 32 -11 25z"/>
<path d="M4920 4304 c0 -8 5 -12 10 -9 6 3 10 10 10 16 0 5 -4 9 -10 9 -5 0
-10 -7 -10 -16z"/>
<path d="M4968 4308 c-7 -17 39 -74 51 -62 3 3 -2 11 -11 18 -10 7 -15 16 -11
19 3 4 1 7 -5 7 -6 0 -12 8 -14 18 -3 16 -4 16 -10 0z"/>
<path d="M5051 4244 c0 -11 3 -14 6 -6 3 7 2 16 -1 19 -3 4 -6 -2 -5 -13z"/>
<path d="M5029 4198 c-4 -15 -9 -37 -11 -53 -2 -11 -10 -25 -18 -32 -8 -6 -13
-14 -10 -16 3 -3 15 2 28 11 25 19 43 92 23 92 -6 0 -11 -1 -12 -2z"/>
<path d="M4971 4154 c0 -11 3 -14 6 -6 3 7 2 16 -1 19 -3 4 -6 -2 -5 -13z"/>
<path d="M4887 4130 c-3 -11 -1 -20 4 -20 5 0 9 9 9 20 0 11 -2 20 -4 20 -2 0
-6 -9 -9 -20z"/>
<path d="M4925 4140 c-3 -5 1 -10 9 -10 8 0 18 5 21 10 3 6 -1 10 -9 10 -8 0
-18 -4 -21 -10z"/>
<path d="M4940 4111 c0 -6 -9 -11 -19 -11 -11 0 -23 -4 -26 -10 -4 -6 1 -7 12
-3 15 5 16 3 6 -8 -17 -18 -16 -29 2 -29 8 0 15 7 15 15 0 10 7 15 18 13 20
-3 25 33 5 40 -7 2 -13 -1 -13 -7z"/>
<path d="M4865 4040 c-3 -5 -1 -10 4 -10 6 0 11 5 11 10 0 6 -2 10 -4 10 -3 0
-8 -4 -11 -10z"/>
<path d="M4747 3929 c7 -7 15 -10 18 -7 3 3 -2 9 -12 12 -14 6 -15 5 -6 -5z"/>
<path d="M5105 3811 c-3 -5 -19 -12 -35 -16 -16 -4 -28 -12 -27 -18 1 -7 -5
-12 -13 -13 -8 0 -28 -6 -45 -13 -16 -7 -68 -14 -115 -15 -47 -2 -89 -4 -95
-6 -16 -6 -64 21 -67 38 -2 8 -15 16 -29 18 -20 2 -30 -4 -39 -24 -14 -29 -14
-75 1 -80 16 -6 10 -30 -11 -45 -24 -17 -90 -102 -90 -116 0 -6 -5 -11 -11
-11 -5 0 -7 -4 -4 -10 3 -6 -1 -7 -9 -4 -12 5 -16 0 -16 -19 0 -20 -6 -26 -32
-29 -21 -4 -37 1 -50 14 -10 10 -22 18 -27 18 -23 0 -41 -14 -41 -31 0 -10 -6
-19 -12 -19 -9 0 -9 -3 -2 -8 14 -10 26 -42 14 -42 -5 0 -7 -9 -5 -20 4 -23
35 -70 35 -55 1 6 9 -1 20 -14 11 -12 17 -27 14 -32 -3 -5 -2 -9 3 -8 19 3 34
-2 29 -10 -3 -5 10 -12 30 -16 24 -4 34 -11 30 -20 -2 -7 1 -19 9 -25 11 -9
12 -7 8 12 -3 13 -1 18 4 12 4 -6 20 -14 36 -18 15 -3 27 -11 27 -17 0 -6 -4
-7 -10 -4 -5 3 -10 -1 -10 -10 0 -9 6 -15 13 -14 21 4 47 -12 47 -29 0 -8 3
-13 6 -9 3 3 16 2 28 -3 13 -4 28 -5 35 -1 9 6 7 10 -8 14 -14 3 -21 13 -21
29 1 20 2 21 11 6 5 -10 23 -32 39 -50 16 -17 26 -36 23 -41 -3 -5 3 -6 15 -3
12 4 22 2 25 -7 5 -14 84 -15 125 -2 17 6 22 3 22 -9 0 -17 2 -18 101 -20 36
-2 70 -6 77 -10 9 -5 12 87 12 403 0 226 -2 411 -4 411 -3 0 -7 -4 -11 -9z
m-280 -741 c-3 -5 -11 -10 -16 -10 -6 0 -7 5 -4 10 3 6 11 10 16 10 6 0 7 -4
4 -10z"/>
<path d="M4313 3765 c-9 -9 -9 -16 -2 -20 6 -4 8 -13 5 -21 -3 -8 -1 -14 4
-14 6 0 10 -7 10 -15 0 -8 8 -15 18 -16 9 0 24 -2 33 -4 12 -2 15 3 12 16 -3
10 -9 17 -13 14 -5 -3 -12 0 -15 6 -4 5 -13 8 -21 5 -8 -3 -14 -1 -14 4 0 6 5
10 10 10 6 0 10 5 10 11 0 6 -7 8 -16 5 -12 -4 -14 -1 -9 14 7 23 5 25 -12 5z"/>
<path d="M4448 2653 c6 -2 18 -2 25 0 6 3 1 5 -13 5 -14 0 -19 -2 -12 -5z"/>
<path d="M5098 2563 c7 -3 16 -2 19 1 4 3 -2 6 -13 5 -11 0 -14 -3 -6 -6z"/>
<path d="M3818 2413 c7 -3 16 -2 19 1 4 3 -2 6 -13 5 -11 0 -14 -3 -6 -6z"/>
<path d="M3485 2390 c-8 -13 5 -13 25 0 13 8 13 10 -2 10 -9 0 -20 -4 -23 -10z"/>
<path d="M4808 2243 c7 -3 16 -2 19 1 4 3 -2 6 -13 5 -11 0 -14 -3 -6 -6z"/>
<path d="M4878 2103 c7 -3 16 -2 19 1 4 3 -2 6 -13 5 -11 0 -14 -3 -6 -6z"/>
<path d="M4958 2079 c-36 -21 -19 -30 45 -23 72 8 88 14 61 25 -28 11 -86 10
-106 -2z"/>
<path d="M5103 2077 c3 -9 -1 -18 -10 -21 -9 -4 -14 -9 -11 -11 3 -3 13 -3 22
1 19 7 21 30 4 40 -7 5 -9 2 -5 -9z"/>
<path d="M5104 2002 c4 -8 -10 -10 -49 -8 -30 1 -55 -1 -55 -5 0 -4 -10 -5
-22 -2 -17 3 -19 2 -10 -5 8 -5 14 -13 13 -18 0 -5 11 -7 26 -6 14 2 23 0 20
-5 -3 -5 3 -9 13 -10 11 -1 22 2 25 7 2 4 -1 7 -8 6 -6 0 -12 4 -12 9 0 6 9 9
20 7 11 -1 26 -3 32 -4 8 -1 10 -10 6 -26 -4 -17 -2 -23 6 -18 14 9 14 73 -1
82 -6 4 -8 3 -4 -4z"/>
<path d="M4873 1970 c2 -8 16 -16 33 -17 25 -1 26 0 4 4 -14 3 -29 10 -33 17
-6 7 -7 6 -4 -4z"/>
<path d="M4530 1950 c36 -12 60 -12 60 0 0 6 -19 10 -42 9 -37 -1 -39 -2 -18
-9z"/>
<path d="M4815 1913 c13 -13 75 -25 75 -14 0 4 -6 8 -12 8 -7 0 -26 4 -43 8
-20 5 -27 4 -20 -2z"/>
<path d="M4927 1906 c-3 -8 0 -16 6 -19 18 -6 124 -7 109 -1 -6 3 -9 10 -6 15
3 6 -10 8 -33 6 -21 -3 -45 -1 -55 4 -11 6 -18 4 -21 -5z"/>
<path d="M5096 1883 c-6 -14 -5 -15 5 -6 7 7 10 15 7 18 -3 3 -9 -2 -12 -12z"/>
<path d="M4428 1873 c7 -3 16 -2 19 1 4 3 -2 6 -13 5 -11 0 -14 -3 -6 -6z"/>
<path d="M5040 1850 c0 -5 5 -10 11 -10 5 0 7 5 4 10 -3 6 -8 10 -11 10 -2 0
-4 -4 -4 -10z"/>
<path d="M5068 1826 c-25 -19 -23 -23 17 -24 21 -1 33 3 30 8 -3 6 -13 10 -21
10 -8 0 -12 5 -9 10 8 13 4 12 -17 -4z"/>
<path d="M4785 1820 c3 -5 13 -10 21 -10 8 0 14 5 14 10 0 6 -9 10 -21 10 -11
0 -17 -4 -14 -10z"/>
<path d="M5000 1820 c-13 -9 -13 -11 0 -20 15 -10 25 0 18 20 -2 6 -8 6 -18 0z"/>
<path d="M5034 1775 c-10 -8 -14 -14 -9 -15 15 0 40 18 34 24 -3 3 -14 -1 -25
-9z"/>
<path d="M4692 1764 c-11 -12 -9 -14 13 -14 14 0 25 5 25 11 0 5 -4 8 -9 5 -5
-4 -11 -2 -13 3 -1 5 -9 3 -16 -5z"/>
<path d="M3408 1763 c6 -2 18 -2 25 0 6 3 1 5 -13 5 -14 0 -19 -2 -12 -5z"/>
<path d="M3505 1760 c-4 -6 5 -10 19 -10 14 0 26 5 26 10 0 6 -9 10 -19 10
-11 0 -23 -4 -26 -10z"/>
<path d="M2895 1730 c3 -5 15 -10 26 -10 10 0 19 5 19 10 0 6 -12 10 -26 10
-14 0 -23 -4 -19 -10z"/>
<path d="M988 1693 c7 -3 16 -2 19 1 4 3 -2 6 -13 5 -11 0 -14 -3 -6 -6z"/>
<path d="M3008 1693 c7 -3 16 -2 19 1 4 3 -2 6 -13 5 -11 0 -14 -3 -6 -6z"/>
<path d="M4654 1672 c5 -8 66 -4 66 4 0 2 -16 4 -36 4 -19 0 -33 -4 -30 -8z"/>
<path d="M1290 1650 c-9 -6 -10 -10 -3 -10 6 0 15 5 18 10 8 12 4 12 -15 0z"/>
<path d="M3868 1638 c-16 -5 -28 -14 -28 -19 0 -6 8 -6 19 1 25 13 34 13 26 0
-3 -5 4 -12 17 -15 34 -7 121 8 126 23 5 16 -32 16 -57 0 -15 -9 -23 -9 -36 2
-22 18 -34 19 -67 8z"/>
<path d="M4494 1635 c8 -8 17 -15 20 -15 3 0 3 7 0 15 -4 8 -13 15 -21 15 -12
0 -12 -2 1 -15z"/>
<path d="M4628 1643 c7 -3 16 -2 19 1 4 3 -2 6 -13 5 -11 0 -14 -3 -6 -6z"/>
<path d="M3280 1636 c0 -2 7 -6 15 -10 8 -3 15 -1 15 4 0 6 -7 10 -15 10 -8 0
-15 -2 -15 -4z"/>
<path d="M4376 1624 c-5 -12 -2 -15 10 -10 8 3 18 6 20 6 2 0 4 5 4 10 0 16
-27 11 -34 -6z"/>
<path d="M1331 1621 c-11 -7 -6 -13 19 -26 23 -12 35 -14 43 -6 8 8 3 11 -16
11 -19 0 -25 4 -21 15 7 17 -4 19 -25 6z"/>
<path d="M1395 1620 c27 -12 43 -12 25 0 -8 5 -22 9 -30 9 -10 0 -8 -3 5 -9z"/>
<path d="M3338 1622 c-10 -2 -18 -8 -18 -13 0 -8 67 -3 78 6 6 5 -43 11 -60 7z"/>
<path d="M1461 1613 c-1 -6 -11 -13 -23 -15 -18 -2 -20 -5 -7 -10 21 -8 43 6
36 23 -3 9 -6 9 -6 2z"/>
<path d="M3240 1610 c0 -5 5 -10 11 -10 5 0 7 5 4 10 -3 6 -8 10 -11 10 -2 0
-4 -4 -4 -10z"/>
<path d="M1212 1597 c-14 -17 24 -17 53 0 18 11 18 12 -11 13 -17 0 -36 -6
-42 -13z"/>
<path d="M840 1590 c0 -5 5 -10 10 -10 6 0 10 5 10 10 0 6 -4 10 -10 10 -5 0
-10 -4 -10 -10z"/>
<path d="M1500 1596 c0 -2 7 -7 16 -10 8 -3 12 -2 9 4 -6 10 -25 14 -25 6z"/>
<path d="M4125 1590 c-4 -6 -11 -8 -16 -5 -5 3 -6 0 -4 -7 6 -15 42 -22 49
-10 2 4 -2 13 -10 19 -8 8 -15 9 -19 3z"/>
<path d="M3110 1580 c-9 -6 -10 -10 -3 -10 6 0 15 5 18 10 8 12 4 12 -15 0z"/>
<path d="M3936 1582 c-3 -5 1 -9 9 -9 8 0 15 4 15 9 0 4 -4 8 -9 8 -6 0 -12
-4 -15 -8z"/>
<path d="M2385 1565 c-19 -14 -18 -14 13 -15 22 0 32 4 30 12 -6 18 -22 20
-43 3z"/>
<path d="M3162 1573 c-12 -2 -20 -8 -17 -13 6 -10 45 -1 45 11 0 5 -1 8 -2 8
-2 -1 -13 -4 -26 -6z"/>
<path d="M3830 1570 c-12 -8 -12 -10 5 -11 11 0 32 -2 48 -4 18 -2 27 1 27 11
0 17 -5 17 -31 4 -13 -7 -19 -7 -19 0 0 13 -10 13 -30 0z"/>
<path d="M4174 1555 c-10 -8 -27 -15 -36 -15 -12 0 -15 -5 -11 -17 6 -16 4
-16 -16 1 -22 20 -22 20 -14 0 7 -18 6 -18 -19 -2 -24 16 -38 15 -38 -3 0 -5
23 -11 50 -15 50 -7 80 -24 41 -24 -11 0 -23 -4 -26 -10 -10 -16 29 -12 51 5
19 15 19 15 0 30 -25 19 -15 28 26 28 25 -1 28 1 13 6 -19 8 -19 8 0 19 11 6
15 12 9 12 -5 0 -19 -7 -30 -15z"/>
<path d="M3283 1550 c-29 -12 -30 -24 -1 -17 12 4 28 1 35 -5 20 -16 28 -2 10
17 -9 8 -17 15 -19 14 -2 0 -13 -4 -25 -9z"/>
<path d="M3994 1545 c8 -8 19 -15 24 -15 5 0 15 7 22 15 8 9 8 15 2 15 -6 0
-12 -6 -15 -12 -4 -10 -7 -10 -18 0 -19 17 -33 15 -15 -3z"/>
<path d="M875 1540 c-3 -5 -1 -10 4 -10 6 0 11 5 11 10 0 6 -2 10 -4 10 -3 0
-8 -4 -11 -10z"/>
<path d="M3038 1543 c7 -3 16 -2 19 1 4 3 -2 6 -13 5 -11 0 -14 -3 -6 -6z"/>
<path d="M1080 1530 c0 -5 7 -7 15 -4 8 4 15 8 15 10 0 2 -7 4 -15 4 -8 0 -15
-4 -15 -10z"/>
<path d="M1278 1533 c-35 -4 -55 -23 -24 -23 29 0 76 13 76 21 0 5 -3 8 -7 7
-5 -1 -25 -3 -45 -5z"/>
<path d="M2772 1533 c-12 -2 -20 -8 -17 -12 6 -11 55 -1 55 10 0 5 -3 8 -7 8
-5 -1 -18 -4 -31 -6z"/>
<path d="M2952 1528 c-13 -5 -14 -7 -2 -8 25 -4 55 1 64 10 9 9 -37 8 -62 -2z"/>
<path d="M2360 1521 c0 -8 110 -4 119 5 2 2 -23 4 -57 4 -34 0 -62 -4 -62 -9z"/>
<path d="M2520 1520 c0 -5 5 -10 10 -10 6 0 10 5 10 10 0 6 -4 10 -10 10 -5 0
-10 -4 -10 -10z"/>
<path d="M3928 1513 c7 -3 16 -2 19 1 4 3 -2 6 -13 5 -11 0 -14 -3 -6 -6z"/>
<path d="M3095 1500 c-3 -5 3 -10 14 -10 12 0 21 5 21 10 0 6 -6 10 -14 10 -8
0 -18 -4 -21 -10z"/>
<path d="M3765 1500 c-3 -5 -1 -10 4 -10 6 0 11 5 11 10 0 6 -2 10 -4 10 -3 0
-8 -4 -11 -10z"/>
<path d="M2360 1496 c0 -2 8 -10 18 -17 15 -13 16 -12 3 4 -13 16 -21 21 -21
13z"/>
<path d="M3793 1485 c-16 -17 -16 -25 -2 -25 11 0 39 24 39 34 0 11 -25 5 -37
-9z"/>
<path d="M4004 1478 c0 -16 7 -28 15 -28 11 0 11 -3 1 -15 -7 -9 -10 -19 -6
-23 4 -4 13 1 20 11 14 18 42 25 31 7 -3 -5 -2 -10 4 -10 5 0 11 6 13 12 3 9
9 8 22 -5 17 -16 17 -17 -1 -18 -10 -1 -21 -1 -25 0 -5 0 -8 -3 -8 -7 0 -5
-18 -15 -40 -22 -43 -14 -47 -19 -28 -38 18 -18 30 -14 23 8 -5 17 -1 21 27
27 18 4 36 6 39 6 4 -1 15 7 24 17 17 19 17 21 -5 40 -13 11 -37 20 -55 20
-23 0 -35 6 -42 23 -10 21 -11 21 -9 -5z"/>
<path d="M4025 1490 c3 -5 13 -10 21 -10 8 0 12 5 9 10 -3 6 -13 10 -21 10 -8
0 -12 -4 -9 -10z"/>
<path d="M3960 1479 c0 -5 5 -7 10 -4 6 3 10 8 10 11 0 2 -4 4 -10 4 -5 0 -10
-5 -10 -11z"/>
<path d="M200 1465 c-14 -16 -10 -18 14 -9 9 3 16 10 16 15 0 14 -16 11 -30
-6z"/>
<path d="M4448 1473 c7 -3 16 -2 19 1 4 3 -2 6 -13 5 -11 0 -14 -3 -6 -6z"/>
<path d="M2725 1460 c-3 -5 -1 -10 4 -10 6 0 11 5 11 10 0 6 -2 10 -4 10 -3 0
-8 -4 -11 -10z"/>
<path d="M3969 1453 c-13 -16 -12 -17 4 -4 16 13 21 21 13 21 -2 0 -10 -8 -17
-17z"/>
<path d="M2936 1444 c-6 -15 -4 -15 11 -3 10 7 20 15 22 16 2 2 -3 3 -11 3 -9
0 -19 -7 -22 -16z"/>
<path d="M290 1430 c0 -5 5 -10 11 -10 5 0 7 5 4 10 -3 6 -8 10 -11 10 -2 0
-4 -4 -4 -10z"/>
<path d="M3958 1423 c-16 -2 -28 -9 -28 -15 0 -6 10 -8 23 -4 12 3 28 6 35 6
6 0 12 5 12 10 0 6 -3 9 -7 9 -5 -1 -20 -4 -35 -6z"/>
<path d="M3778 1413 c7 -3 16 -2 19 1 4 3 -2 6 -13 5 -11 0 -14 -3 -6 -6z"/>
<path d="M3000 1404 c0 -10 44 -43 58 -44 9 0 7 6 -5 18 -18 19 -53 36 -53 26z"/>
<path d="M905 1384 l-30 -13 30 6 c32 6 41 11 34 17 -2 2 -17 -2 -34 -10z"/>
<path d="M3110 1380 c0 -5 6 -10 14 -10 8 0 18 5 21 10 3 6 -3 10 -14 10 -12
0 -21 -4 -21 -10z"/>
<path d="M3910 1375 c-5 -6 -5 -17 0 -25 8 -13 10 -12 10 3 0 19 20 24 20 5 0
-9 3 -10 8 -2 4 6 16 16 27 22 17 10 15 11 -18 9 -21 -1 -42 -7 -47 -12z"/>
<path d="M1225 1350 c4 -6 11 -8 16 -5 14 9 11 15 -7 15 -8 0 -12 -5 -9 -10z"/>
<path d="M3840 1330 c-41 -41 -38 -45 10 -14 22 15 40 31 40 35 0 18 -21 8
-50 -21z"/>
<path d="M1358 1343 c7 -3 16 -2 19 1 4 3 -2 6 -13 5 -11 0 -14 -3 -6 -6z"/>
<path d="M3760 1339 c0 -5 5 -7 10 -4 6 3 10 8 10 11 0 2 -4 4 -10 4 -5 0 -10
-5 -10 -11z"/>
<path d="M475 1330 c-3 -5 1 -10 9 -10 9 0 16 5 16 10 0 6 -4 10 -9 10 -6 0
-13 -4 -16 -10z"/>
<path d="M1445 1320 c-3 -6 1 -7 9 -4 18 7 21 14 7 14 -6 0 -13 -4 -16 -10z"/>
<path d="M785 1301 c-3 -6 -10 -9 -15 -6 -5 3 -11 1 -15 -5 -3 -5 0 -10 7 -10
18 0 44 18 36 25 -3 4 -9 1 -13 -4z"/>
<path d="M1626 1303 c6 -4 14 -15 17 -23 5 -11 6 -9 4 4 -1 11 -9 21 -17 23
-10 3 -11 2 -4 -4z"/>
<path d="M3760 1290 c-6 -11 -7 -20 -3 -20 5 0 16 9 26 20 14 16 14 20 2 20
-8 0 -19 -9 -25 -20z"/>
<path d="M526 1285 c-8 -8 -19 -15 -25 -15 -5 0 -12 -4 -15 -9 -10 -15 38 1
50 17 7 9 16 12 24 7 9 -5 11 -4 6 3 -10 16 -22 15 -40 -3z"/>
<path d="M1597 1266 c-4 -10 -1 -13 9 -9 15 6 19 23 5 23 -5 0 -11 -7 -14 -14z"/>
<path d="M1100 1260 c-8 -5 -11 -12 -8 -16 10 -9 38 3 38 16 0 12 -10 13 -30
0z"/>
<path d="M1450 1252 c0 -5 -12 -7 -27 -5 -27 3 -72 -21 -61 -32 9 -10 38 7 31
18 -4 7 6 8 30 4 28 -4 37 -2 37 9 0 8 -2 14 -5 14 -3 0 -5 -4 -5 -8z"/>
<path d="M408 1243 c7 -3 16 -2 19 1 4 3 -2 6 -13 5 -11 0 -14 -3 -6 -6z"/>
<path d="M1250 1237 l-25 -10 23 -5 c26 -4 36 1 31 16 -3 6 -14 5 -29 -1z"/>
<path d="M318 1223 c-25 -6 -32 -35 -12 -50 21 -16 14 -16 -21 -3 -14 5 -24
14 -21 18 3 5 -1 9 -8 9 -7 0 -13 -7 -12 -16 1 -10 -6 -15 -18 -13 -10 2 -15
-1 -12 -6 3 -6 -5 -13 -18 -16 -35 -9 -42 -34 -8 -28 15 3 32 8 37 12 6 4 18
6 28 5 9 -2 17 1 17 7 0 6 8 8 19 5 22 -5 54 11 46 24 -4 5 0 9 8 9 7 0 14 7
14 15 0 13 -3 13 -24 0 -21 -14 -23 -14 -23 0 0 8 6 15 14 15 8 0 18 5 21 10
6 10 2 11 -27 3z"/>
<path d="M614 1214 c-10 -8 -13 -12 -5 -8 8 4 12 3 8 -3 -4 -5 -20 -10 -37
-11 -39 -1 -67 -21 -48 -33 9 -6 6 -9 -9 -9 -13 0 -23 -4 -23 -10 0 -5 -4 -10
-10 -10 -5 0 -10 7 -10 16 0 12 -3 14 -13 6 -8 -7 -18 -7 -27 -2 -16 10 -30 4
-30 -11 0 -6 8 -8 18 -5 9 3 23 2 30 -3 10 -6 6 -10 -15 -14 -18 -3 -31 0 -36
9 -7 12 -11 12 -32 -2 -14 -9 -26 -11 -29 -5 -3 5 0 12 6 15 7 3 4 4 -7 3 -11
-2 -19 -8 -18 -13 1 -6 -11 -9 -26 -6 -15 2 -48 -5 -72 -16 -25 -11 -58 -24
-74 -28 -17 -4 -36 -11 -43 -17 -18 -14 -27 -1 -12 18 7 8 28 15 48 15 l36 0
-34 25 c-30 22 -31 25 -12 25 12 0 22 5 22 10 0 6 -6 10 -14 10 -16 0 -29 -16
-33 -39 -1 -7 -7 -19 -14 -25 -9 -8 -10 -6 -6 12 6 27 -4 28 -55 5 l-38 -18 1
-100 c3 -148 11 -211 28 -207 12 3 12 0 1 -12 -10 -13 -10 -16 4 -16 10 0 14
-5 11 -10 -4 -6 -11 -8 -16 -4 -6 3 -7 -5 -3 -23 9 -37 8 -37 46 -20 33 15 68
24 123 31 41 6 83 23 101 41 14 13 12 15 -13 16 l-28 1 28 10 c22 8 31 7 40
-4 9 -12 21 -13 55 -6 23 5 40 13 37 18 -3 5 -11 7 -18 5 -48 -14 -66 -15 -61
-1 3 9 14 18 24 21 19 6 17 37 -3 63 -7 8 -5 12 7 12 10 0 14 -4 11 -10 -3 -5
3 -10 14 -10 12 0 21 7 21 15 0 8 8 15 18 15 14 0 15 -2 2 -10 -8 -5 -10 -10
-5 -10 6 1 19 7 29 15 10 8 22 12 27 10 4 -3 10 -1 14 5 3 5 28 10 56 10 36 0
54 5 69 20 18 18 18 20 3 20 -12 0 -6 10 20 34 41 37 39 48 -7 40 -23 -4 -27
-3 -16 4 8 6 18 8 22 6 4 -3 8 -1 8 3 0 5 20 14 46 21 25 7 42 16 39 22 -3 5
9 6 30 3 20 -3 35 -1 35 4 0 6 -11 8 -25 5 -14 -2 -25 0 -25 6 0 6 -10 8 -22
5 -13 -3 -20 -2 -15 2 4 5 17 9 30 11 12 1 24 3 26 3 2 1 -2 7 -8 15 -9 11
-18 12 -42 3 -17 -7 -27 -17 -25 -24 4 -8 -3 -13 -17 -12 -12 0 -16 3 -9 6 6
2 10 8 7 13 -3 4 9 13 25 20 17 7 30 16 30 21 0 15 -22 10 -37 -8 -10 -13 -16
-15 -19 -5 -3 6 -14 12 -25 12 -10 0 -19 5 -19 10 0 6 6 10 14 10 8 0 18 5 21
10 10 16 -29 12 -51 -6z m-19 -59 c-3 -32 -14 -43 -24 -26 -6 9 -11 10 -15 2
-4 -6 -16 -11 -26 -11 -23 0 -37 -20 -20 -30 8 -5 8 -10 2 -14 -5 -3 -13 1
-16 10 -4 10 -13 13 -26 9 -11 -3 -20 -4 -20 -2 0 8 70 47 85 47 8 0 18 6 22
14 4 7 15 16 23 19 8 3 16 6 17 6 1 1 0 -10 -2 -24z m60 -4 c-3 -6 -16 -11
-28 -11 -21 0 -21 1 3 13 27 15 36 14 25 -2z m-90 -48 c-2 -10 -4 -19 -4 -21
-1 -2 -6 0 -11 3 -8 5 -7 11 1 21 15 18 18 18 14 -3z m40 7 c-3 -5 -12 -10
-18 -10 -7 0 -6 4 3 10 19 12 23 12 15 0z m-195 -21 c0 -4 -12 -15 -27 -23
-26 -14 -27 -15 -5 -16 12 0 22 5 22 11 0 6 9 9 20 6 11 -3 18 -1 14 4 -6 10
29 12 39 2 9 -9 -31 -36 -42 -28 -5 3 -16 -1 -24 -9 -8 -8 -29 -22 -48 -31
-68 -33 -104 -55 -87 -55 9 0 28 4 42 10 14 5 28 5 31 1 5 -9 -22 -20 -70 -28
-16 -2 -37 -9 -46 -14 -10 -5 -28 -9 -41 -9 -22 0 -21 1 8 28 17 15 50 34 73
41 53 15 50 37 -5 33 -21 -2 -44 -8 -51 -14 -10 -8 -13 -6 -13 5 0 14 39 27
86 27 14 0 25 8 29 20 4 11 11 18 16 15 5 -4 12 1 15 9 3 9 15 16 26 16 10 0
16 4 13 10 -3 6 1 7 9 4 9 -3 16 -10 16 -15z m-131 -18 c-24 -19 -45 -19 -33
0 7 12 47 29 53 23 2 -2 -7 -12 -20 -23z m-229 4 c-7 -9 -15 -13 -19 -10 -3 3
1 10 9 15 21 14 24 12 10 -5z m161 -25 c-13 -11 -27 -20 -32 -20 -15 0 25 38
41 39 10 0 7 -6 -9 -19z m387 -4 c-2 -1 -16 -10 -32 -20 -18 -12 -25 -13 -20
-5 16 27 29 36 42 32 7 -3 12 -6 10 -7z m-548 -6 c-8 -5 -19 -10 -25 -10 -5 0
-3 5 5 10 8 5 20 10 25 10 6 0 3 -5 -5 -10z m73 -17 c-7 -2 -19 -2 -25 0 -7 3
-2 5 12 5 14 0 19 -2 13 -5z m327 -3 c0 -5 -5 -10 -11 -10 -5 0 -7 5 -4 10 3
6 8 10 11 10 2 0 4 -4 4 -10z m30 -11 c0 -5 -4 -9 -8 -9 -5 0 -9 7 -9 15 0 8
4 12 9 9 4 -3 8 -9 8 -15z m-5 -39 c-3 -5 -10 -10 -16 -10 -5 0 -9 5 -9 10 0
6 7 10 16 10 8 0 12 -4 9 -10z m-365 -9 c0 -5 -9 -11 -21 -14 -16 -4 -18 -3
-8 9 13 16 29 19 29 5z m290 5 c0 -9 -30 -14 -35 -6 -4 6 3 10 14 10 12 0 21
-2 21 -4z m-345 -26 c-7 -11 -45 -19 -45 -10 0 9 17 17 37 17 7 0 10 -4 8 -7z
m31 -38 c-18 -16 -18 -16 -6 6 6 13 14 21 18 18 3 -4 -2 -14 -12 -24z m60 13
c-8 -8 -21 -15 -28 -15 -8 1 -6 6 6 15 26 20 42 19 22 0z m64 -45 c0 -5 -8
-10 -17 -10 -15 0 -16 2 -3 10 19 12 20 12 20 0z m115 -19 c-3 -6 -11 -11 -17
-11 -6 0 -6 6 2 15 14 17 26 13 15 -4z"/>
<path d="M2155 1220 c-3 -5 1 -10 10 -10 9 0 13 5 10 10 -3 6 -8 10 -10 10 -2
0 -7 -4 -10 -10z"/>
<path d="M515 1210 c-19 -8 -19 -9 2 -9 12 -1 25 4 28 9 7 12 -2 12 -30 0z"/>
<path d="M1150 1210 c8 -5 22 -9 30 -9 10 0 8 3 -5 9 -27 12 -43 12 -25 0z"/>
<path d="M375 1201 c-6 -11 33 -26 43 -16 4 3 0 10 -8 15 -19 12 -27 12 -35 1z"/>
<path d="M755 1200 c-19 -8 -19 -9 3 -9 12 -1 22 4 22 9 0 6 -1 10 -2 9 -2 0
-12 -4 -23 -9z"/>
<path d="M790 1206 c0 -2 7 -7 16 -10 8 -3 12 -2 9 4 -6 10 -25 14 -25 6z"/>
<path d="M2108 1193 c7 -3 16 -2 19 1 4 3 -2 6 -13 5 -11 0 -14 -3 -6 -6z"/>
<path d="M2176 1184 c-9 -23 -1 -28 16 -11 8 8 23 17 34 20 12 3 8 5 -12 6
-21 1 -34 -5 -38 -15z"/>
<path d="M158 1183 c7 -3 16 -2 19 1 4 3 -2 6 -13 5 -11 0 -14 -3 -6 -6z"/>
<path d="M445 1180 c-18 -8 -18 -9 5 -9 14 0 32 4 40 9 12 8 12 10 -5 9 -11 0
-29 -4 -40 -9z"/>
<path d="M1115 1180 c-4 -6 -24 -9 -46 -7 -48 5 -61 -8 -17 -17 22 -4 40 0 62
14 17 11 26 20 19 20 -6 0 -15 -5 -18 -10z"/>
<path d="M2265 1180 c-3 -5 1 -10 10 -10 9 0 13 5 10 10 -3 6 -8 10 -10 10 -2
0 -7 -4 -10 -10z"/>
<path d="M1185 1158 c2 -22 25 -39 25 -19 0 6 15 12 33 12 30 2 30 2 4 6 -15
2 -25 9 -22 14 4 5 -5 9 -18 9 -18 0 -23 -5 -22 -22z"/>
<path d="M1308 1173 c7 -3 16 -2 19 1 4 3 -2 6 -13 5 -11 0 -14 -3 -6 -6z"/>
<path d="M2130 1170 c0 -5 7 -10 15 -10 8 0 15 5 15 10 0 6 -7 10 -15 10 -8 0
-15 -4 -15 -10z"/>
<path d="M955 1160 c-3 -5 1 -10 9 -10 8 0 18 5 21 10 3 6 -1 10 -9 10 -8 0
-18 -4 -21 -10z"/>
<path d="M1145 1154 c-6 -8 -27 -15 -47 -16 -31 -1 -78 -27 -78 -43 0 -5 66 1
110 10 28 5 36 12 38 30 2 29 -10 39 -23 19z"/>
<path d="M986 1139 c-19 -18 -19 -19 -1 -19 10 0 15 -3 12 -7 -4 -3 -20 -6
-37 -5 -16 0 -30 -4 -30 -9 0 -5 16 -9 35 -9 33 0 40 7 36 36 -1 7 10 10 26 8
16 -2 21 -1 13 2 -8 4 -19 10 -25 14 -5 4 -19 -1 -29 -11z"/>
<path d="M1978 1145 c-3 -3 -25 -10 -49 -15 l-44 -9 54 4 c30 2 59 9 65 15 7
7 5 10 -5 10 -9 0 -18 -2 -21 -5z"/>
<path d="M2415 1140 c-3 -6 1 -7 9 -4 18 7 21 14 7 14 -6 0 -13 -4 -16 -10z"/>
<path d="M828 1133 c7 -3 16 -2 19 1 4 3 -2 6 -13 5 -11 0 -14 -3 -6 -6z"/>
<path d="M925 1130 c-3 -6 1 -7 9 -4 18 7 21 14 7 14 -6 0 -13 -4 -16 -10z"/>
<path d="M2625 1130 c-3 -6 1 -7 9 -4 18 7 21 14 7 14 -6 0 -13 -4 -16 -10z"/>
<path d="M2485 1120 c-3 -5 1 -10 9 -10 8 0 18 5 21 10 3 6 -1 10 -9 10 -8 0
-18 -4 -21 -10z"/>
<path d="M2538 1123 c7 -3 16 -2 19 1 4 3 -2 6 -13 5 -11 0 -14 -3 -6 -6z"/>
<path d="M878 1092 c-4 -14 1 -18 21 -19 16 0 19 1 8 4 -11 3 -16 11 -13 19 3
8 2 14 -3 14 -5 0 -11 -8 -13 -18z"/>
<path d="M965 1070 c-3 -5 -1 -10 4 -10 6 0 11 5 11 10 0 6 -2 10 -4 10 -3 0
-8 -4 -11 -10z"/>
<path d="M705 1060 c-3 -5 -1 -10 4 -10 6 0 11 5 11 10 0 6 -2 10 -4 10 -3 0
-8 -4 -11 -10z"/>
<path d="M732 1044 c-12 -8 -22 -24 -22 -35 0 -11 -7 -19 -16 -19 -8 0 -12 -5
-9 -10 8 -13 45 6 45 22 0 6 7 20 17 30 22 24 13 32 -15 12z"/>
<path d="M925 1030 c-3 -6 1 -7 9 -4 18 7 21 14 7 14 -6 0 -13 -4 -16 -10z"/>
<path d="M646 1013 c-11 -11 -6 -23 8 -23 8 0 17 4 20 9 7 10 -19 23 -28 14z"/>
<path d="M718 965 c-21 -7 -49 -10 -64 -7 -18 3 -25 1 -20 -6 4 -7 -7 -14 -29
-18 -36 -6 -53 -20 -40 -32 3 -3 9 -2 13 4 4 6 21 10 37 9 17 0 35 4 42 11 6
6 30 14 52 18 22 3 43 11 46 17 11 17 2 18 -37 4z"/>
<path d="M750 910 c0 -5 6 -10 14 -10 8 0 18 5 21 10 3 6 -3 10 -14 10 -12 0
-21 -4 -21 -10z"/>
<path d="M466 899 c-17 -11 -17 -12 5 -23 13 -7 26 -10 29 -6 3 3 16 11 30 18
24 11 23 12 -9 6 -23 -4 -31 -3 -27 5 9 14 -3 14 -28 0z"/>
<path d="M1248 893 c7 -3 16 -2 19 1 4 3 -2 6 -13 5 -11 0 -14 -3 -6 -6z"/>
<path d="M1702 874 c-11 -12 -9 -14 8 -14 11 0 20 4 20 9 0 17 -15 19 -28 5z"/>
<path d="M2150 880 c-9 -6 -10 -10 -3 -10 6 0 15 5 18 10 8 12 4 12 -15 0z"/>
<path d="M399 871 c11 -7 11 -9 0 -14 -8 -3 -4 -6 9 -6 25 -1 30 14 6 23 -23
9 -31 7 -15 -3z"/>
<path d="M635 870 c-8 -13 5 -13 25 0 13 8 13 10 -2 10 -9 0 -20 -4 -23 -10z"/>
<path d="M1933 835 c-27 -20 -10 -27 27 -12 28 12 30 15 12 19 -12 3 -29 0
-39 -7z"/>
<path d="M1600 810 c0 -5 5 -10 10 -10 6 0 10 5 10 10 0 6 -4 10 -10 10 -5 0
-10 -4 -10 -10z"/>
</g>
</svg>
